<svg width="20" height="25" viewBox="0 0 20 25" fill="none" xmlns="http://www.w3.org/2000/svg">
<path d="M9.51779 0C6.79428 2.43767 3.58322 3.18772 0.00231207 2.86383C0.00231207 3.17067 0.00231207 3.44342 0.00231207 3.73321C0.00231207 6.88684 0.0527475 10.0234 0.00231207 13.177C-0.0481233 15.8022 0.725219 18.0865 2.45683 20.0298C4.33976 22.1436 6.76065 23.405 9.38329 24.3426C9.48416 24.3767 9.61866 24.3596 9.73634 24.3255C11.6697 23.6266 13.5022 22.7231 15.1329 21.4276C17.0327 19.8934 18.428 18.0012 18.8315 15.5465C19.0333 14.3533 19.0165 13.1089 19.0165 11.8985C19.0501 9.03471 19.0333 6.17088 19.0333 3.30704C19.0333 3.17067 19.0333 3.05135 19.0333 2.88088C15.4524 3.20477 12.2413 2.42062 9.51779 0ZM13.3004 17.899C12.5775 18.1717 11.8378 18.4444 11.0813 18.5979C9.41692 18.9388 7.78617 18.7172 6.20586 18.1206C6.02093 18.0524 5.85282 17.9501 5.6847 17.8649C5.16353 17.6092 4.92817 17.2171 4.94498 16.5864C4.9786 15.0522 4.96179 13.535 4.9786 12.0008C4.9786 11.7451 4.94498 11.4894 4.94498 11.2337C4.94498 10.5519 5.04585 10.4496 5.76876 10.3473C5.76876 9.78476 5.76876 9.22222 5.76876 8.67673C5.76876 7.33005 6.22268 6.18792 7.29863 5.35264C8.40821 4.48326 9.66909 4.3128 10.9636 4.89238C12.3085 5.48901 13.0651 6.58 13.2332 8.04601C13.3173 8.65968 13.2668 9.30746 13.2836 9.93818C13.2836 10.0746 13.2836 10.2109 13.2836 10.3303C14.0738 10.5007 14.0906 10.5348 14.0906 11.3531C14.0906 13.0918 14.0738 14.8306 14.1074 16.5693C14.1242 17.2341 13.872 17.6773 13.3004 17.899Z" fill="#FF3F40"/>
<path d="M9.50138 5.98336C8.29093 5.98336 7.26541 6.97206 7.16454 8.25056C7.11411 8.8131 7.16454 9.39268 7.13092 9.95522C7.11411 10.2791 7.19817 10.3984 7.55121 10.3814C8.86253 10.3643 10.1739 10.3643 11.502 10.3643C11.6197 10.3643 11.7374 10.3473 11.8718 10.3473C11.8718 9.63133 11.9055 8.91538 11.855 8.21646C11.771 6.95501 10.7118 5.96631 9.50138 5.98336Z" fill="#FF3F40"/>
<path d="M8.74481 12.4781C8.17321 12.9895 8.03871 13.8078 8.55988 14.3021C8.91293 14.6431 8.96336 14.9669 8.92974 15.3761C8.92974 15.5806 8.91293 15.7681 8.92974 15.9727C8.94655 16.2795 9.1651 16.4329 9.51815 16.4329C9.8712 16.4329 10.0898 16.2795 10.1066 15.9727C10.1234 15.6829 10.1234 15.4101 10.1066 15.1204C10.0898 14.8476 10.1402 14.626 10.3756 14.4214C10.9135 13.9782 10.9135 13.1259 10.4596 12.6315C10.0057 12.1542 9.19873 12.0861 8.74481 12.4781Z" fill="#FF3F40"/>
</svg>
