<svg width="24" height="21" viewBox="0 0 24 21" fill="none" xmlns="http://www.w3.org/2000/svg">
<path d="M11.7005 1.16668H11.7577C14.2996 1.17334 16.7387 1.69168 19.0647 2.74269C20.0303 3.17903 20.8607 3.80937 21.5103 4.67271C21.8842 5.16938 22.1356 5.72272 22.1931 6.35439C22.2539 7.04006 22.0608 7.66074 21.6953 8.22707C21.2366 8.93875 20.6224 9.48509 19.9269 9.94276C18.9896 10.5598 17.9528 10.9391 16.8954 11.2688C15.5354 11.6931 14.1432 11.8874 12.7256 11.9498C12.3769 11.9651 12.0283 11.9729 11.68 11.9731C10.9676 11.9731 10.2569 11.9398 9.54714 11.8674C7.66138 11.6751 5.84065 11.2298 4.14022 10.3431C3.25293 9.88042 2.44336 9.31808 1.82886 8.49774C1.38506 7.90474 1.10545 7.25073 1.14056 6.48573C1.17307 5.78739 1.45269 5.18971 1.8643 4.65238C2.64039 3.63703 3.65642 2.95569 4.81161 2.48569C6.03638 1.98835 7.30992 1.66668 8.60719 1.43935C9.62898 1.25945 10.6637 1.16824 11.7005 1.16668ZM11.7135 8.62408C11.5037 8.62339 11.2945 8.59993 11.0896 8.55408C10.8454 8.50008 10.6123 8.39374 10.5017 8.17341C10.4 7.96674 10.2774 7.90007 10.1343 7.90007C10.0277 7.90569 9.92249 7.92818 9.82253 7.96674C9.49252 8.07774 9.15243 8.15774 8.80812 8.25341C8.92319 8.53767 9.10449 8.78866 9.33613 8.98442C9.73994 9.32875 10.2182 9.49375 10.7277 9.57109C10.8542 9.59009 10.8903 9.63609 10.8851 9.76042C10.876 9.96242 10.8825 10.1654 10.8825 10.3644H12.4571V9.92176C12.4571 9.59709 12.4571 9.60342 12.7676 9.53975C13.3031 9.42909 13.7911 9.22775 14.1578 8.78308C14.6406 8.19741 14.6159 7.44973 14.0886 6.91206C13.8285 6.64539 13.5121 6.47873 13.1665 6.37606C12.5595 6.19772 11.9456 6.04272 11.337 5.87105C11.1326 5.8189 10.9332 5.74829 10.741 5.66005C10.3873 5.48638 10.3395 5.05738 10.6409 4.79804C10.7404 4.71298 10.8556 4.64938 10.9797 4.61104C11.1857 4.5506 11.3991 4.52041 11.6133 4.52137C11.8315 4.52295 12.0488 4.54854 12.2617 4.59771C12.5247 4.65604 12.7237 4.80204 12.8823 5.01905C13.0104 5.19405 13.0582 5.25805 13.1603 5.25805C13.2192 5.25805 13.2962 5.23671 13.4175 5.20338C13.7849 5.10338 14.152 4.99805 14.5314 4.89204C14.3438 4.45604 14.0632 4.12304 13.6649 3.93537C13.2829 3.75503 12.8729 3.63537 12.4486 3.4807V2.77536H10.8825C10.8825 2.99036 10.8776 3.18936 10.8844 3.38803C10.8883 3.5067 10.8626 3.55737 10.7303 3.5787C10.2172 3.66237 9.73149 3.81937 9.33548 4.19204C8.76683 4.72538 8.66961 5.51272 9.11407 6.08806C9.30705 6.34594 9.56918 6.54054 9.86837 6.64806C10.359 6.81706 10.859 6.95773 11.3558 7.1064C11.746 7.22273 12.1362 7.3244 12.5231 7.4504C12.7025 7.50873 12.8482 7.62774 12.8784 7.8434C12.9109 8.08274 12.8248 8.27274 12.631 8.40008C12.5237 8.47432 12.4047 8.52901 12.2792 8.56174C12.0934 8.60342 11.9037 8.62432 11.7135 8.62408ZM11.7005 0C10.5999 0.00210271 9.50147 0.0987753 8.41666 0.289003C6.90318 0.552672 5.58802 0.916008 4.39317 1.40035C3.74021 1.66105 3.11922 1.99913 2.54285 2.40769C1.94773 2.83329 1.41724 3.34673 0.968566 3.93137C0.357645 4.72971 0.0432435 5.54772 0.00390267 6.43339C-0.0192398 6.95433 0.0607228 7.47467 0.238972 7.96307C0.405402 8.4115 0.637141 8.8315 0.926299 9.20875C1.57006 10.0681 2.42743 10.7591 3.62488 11.3834C5.31556 12.2644 7.21563 12.8024 9.43465 13.0288C10.1607 13.1028 10.9163 13.1401 11.6803 13.1401C12.038 13.1401 12.4067 13.1321 12.7747 13.1158C14.428 13.0431 15.8839 12.8041 17.2258 12.3854C18.3088 12.0474 19.4597 11.6364 20.5421 10.9248C21.4525 10.3248 22.1401 9.65342 22.6447 8.87108C23.1779 8.04374 23.4075 7.1614 23.3275 6.24872C23.2556 5.44005 22.9484 4.66971 22.4139 3.96004C21.6719 2.97469 20.7004 2.20602 19.5264 1.67568C17.0791 0.570672 14.4683 0.00700006 11.7603 0H11.7005Z" fill="white"/>
<path d="M1.32689 13.457C1.37274 13.495 1.41013 13.5214 1.44232 13.5534C2.71553 14.82 4.24137 15.618 5.934 16.1087C6.98124 16.4124 8.04897 16.6067 9.12776 16.7461C10.0483 16.8694 10.9754 16.9336 11.9037 16.9381C12.0687 16.9381 12.2336 16.9357 12.3986 16.9311C14.9144 16.8584 17.3315 16.3454 19.5996 15.193C20.4198 14.7759 21.1852 14.254 21.8774 13.6397C21.9178 13.604 21.96 13.571 22.0205 13.521C22.3053 14.3434 22.2123 15.104 21.8313 15.839C21.3871 16.6957 20.6975 17.2991 19.9049 17.7934C18.5026 18.6677 16.981 19.2121 15.3699 19.5051C14.3828 19.6847 13.3866 19.7741 12.3859 19.8144C12.0931 19.8264 11.8004 19.8324 11.508 19.8324C9.33877 19.8324 7.21989 19.4947 5.16994 18.6991C4.03588 18.2587 3.00359 17.6397 2.14297 16.7491C1.57172 16.1581 1.2196 15.456 1.15035 14.618C1.11784 14.225 1.18709 13.847 1.32559 13.4577M1.32559 12.291C1.09228 12.2911 0.864628 12.3647 0.673468 12.5018C0.482308 12.6389 0.336881 12.833 0.256889 13.0577C0.0520568 13.635 -0.0266248 14.1774 0.0179181 14.7154C0.106679 15.7964 0.550157 16.7567 1.33567 17.5694C2.25904 18.5247 3.38172 19.2511 4.76808 19.7894C5.8487 20.2076 6.96631 20.5173 8.10522 20.7144C9.23038 20.9068 10.3693 21.0021 11.51 20.9994C11.8127 20.9994 12.1225 20.9931 12.4314 20.9808C13.596 20.9334 14.6225 20.8268 15.5696 20.6544C17.3854 20.3238 19.0433 19.6967 20.4966 18.7907C21.5994 18.1031 22.343 17.3391 22.8375 16.3871C23.388 15.3247 23.4745 14.2294 23.0941 13.131C23.0333 12.9551 22.9323 12.7967 22.7994 12.6691C22.6666 12.5415 22.5058 12.4485 22.3306 12.3977C22.1555 12.347 21.971 12.3401 21.7926 12.3777C21.6143 12.4152 21.4474 12.496 21.3059 12.6134C21.2876 12.6287 21.2711 12.642 21.2561 12.654C21.2177 12.6854 21.1778 12.718 21.1339 12.757C20.5138 13.3068 19.8285 13.7742 19.0943 14.148C17.0961 15.163 14.8953 15.692 12.3667 15.766C12.2146 15.7704 12.0588 15.7724 11.9037 15.7724C11.023 15.7682 10.1434 15.7071 9.27016 15.5894C8.11888 15.4407 7.12885 15.2437 6.24385 14.987C4.60486 14.5117 3.29329 13.769 2.23498 12.7167C2.18162 12.6644 2.12539 12.6154 2.06657 12.5697L2.04283 12.5507C1.84036 12.3829 1.58789 12.2914 1.32754 12.2913L1.32559 12.291Z" fill="white"/>
<path d="M1.33838 9.53386C1.5884 9.76053 1.82607 9.98654 2.07447 10.2005C3.06124 11.0429 4.19498 11.6046 5.40641 12.0156C6.59639 12.4189 7.82213 12.6489 9.06153 12.8156C10.0028 12.9456 10.9514 13.0124 11.9012 13.0156C12.1533 13.0156 12.4055 13.0103 12.6578 12.9999C15.0677 12.8999 17.3794 12.3739 19.5555 11.2849C20.4039 10.8626 21.1926 10.3244 21.9 9.68487C21.9325 9.6562 21.965 9.63087 22.0362 9.57553C22.0853 9.81987 22.1467 10.0362 22.1702 10.2569C22.2518 11.0299 22.0011 11.7092 21.5791 12.3332C21.174 12.9332 20.6342 13.3816 20.0412 13.7706C18.6604 14.6759 17.1475 15.2323 15.545 15.5409C14.2892 15.7812 13.0148 15.905 11.7374 15.9109H11.6028C9.21792 15.9109 6.90071 15.5286 4.6921 14.5669C3.62437 14.1002 2.67044 13.4562 1.91093 12.5416C1.40145 11.9282 1.11794 11.2235 1.1511 10.4062C1.16346 10.1085 1.19662 9.81187 1.33838 9.53453M1.33838 8.36785C1.13071 8.36788 0.927014 8.42616 0.749349 8.53639C0.571685 8.64662 0.426828 8.80459 0.330471 8.99319C0.080771 9.4812 0.0307008 9.95687 0.0144443 10.3579C-0.0294484 11.4339 0.317141 12.4222 1.04446 13.2979C1.87419 14.2979 2.92176 15.0646 4.24732 15.6409C5.4138 16.1457 6.6311 16.5169 7.87708 16.7476C9.10679 16.9721 10.3537 17.0826 11.6028 17.0779H11.7439C13.0896 17.0704 14.4321 16.9392 15.755 16.6859C17.6121 16.3286 19.2147 15.6959 20.6544 14.7526C21.4796 14.2112 22.0703 13.6526 22.5141 12.9972C22.7897 12.6 23.0039 12.1616 23.1495 11.6976C23.3055 11.1912 23.3572 10.6571 23.3013 10.1292C23.2775 9.93036 23.2418 9.7332 23.1943 9.53886C23.1787 9.46886 23.1638 9.40253 23.1508 9.33886C23.1116 9.14447 23.0247 8.96354 22.8984 8.81317C22.772 8.66281 22.6103 8.54799 22.4285 8.47957C22.2468 8.41116 22.051 8.39141 21.8598 8.4222C21.6685 8.45299 21.4881 8.5333 21.3355 8.65552C21.3144 8.67252 21.2969 8.68586 21.2822 8.69752C21.2422 8.72852 21.1974 8.76419 21.1463 8.80986C20.5152 9.3786 19.8122 9.85758 19.0564 10.2339C17.1056 11.2095 14.9987 11.7339 12.6116 11.8316C12.3782 11.8412 12.1392 11.8462 11.9012 11.8462C11.001 11.8437 10.1019 11.7804 9.20979 11.6566C7.79612 11.4662 6.73327 11.2345 5.76341 10.9059C4.5549 10.4959 3.58503 9.97254 2.80212 9.30186C2.64865 9.17053 2.49519 9.02953 2.33263 8.87986C2.2546 8.80819 2.17396 8.73419 2.09138 8.65919C1.88347 8.47104 1.6157 8.3672 1.33838 8.36719V8.36785Z" fill="white"/>
</svg>
