<svg xmlns="http://www.w3.org/2000/svg" width="19" height="13" viewBox="0 0 19 13" fill="none">
<path d="M17.5703 8.95637V0.967316C17.5703 0.68574 17.52 0.635955 17.2357 0.635955H3.86007C3.58349 0.635955 3.52817 0.68681 3.52817 0.952862C3.52817 1.67019 3.52817 2.38751 3.52817 3.10483C3.52817 3.31896 3.52154 3.33288 3.30193 3.33181C2.83782 3.32913 2.87599 3.37677 2.87488 2.9255C2.87488 2.2692 2.87488 1.61273 2.87488 0.956074C2.88041 0.332431 3.21729 0.00642379 3.86007 0.00642379C8.31805 0.00642379 12.776 0.011777 17.234 0C17.8469 0 18.2297 0.403093 18.2297 0.963569C18.2164 3.9319 18.2236 6.90076 18.2231 9.86908C18.2231 10.5072 17.8851 10.8327 17.2202 10.8327H8.01658C7.65038 10.8327 7.51873 10.7111 7.51873 10.36C7.51541 10.0511 7.51873 9.74222 7.51873 9.4328C7.51873 9.07842 7.64983 8.95637 8.01658 8.95637H17.5703ZM10.1695 9.74275C10.1705 9.83988 10.211 9.93271 10.2823 10.0011C10.3535 10.0696 10.4497 10.1081 10.5501 10.1084C10.6014 10.1096 10.6524 10.1008 10.7 10.0825C10.7477 10.0643 10.7911 10.0369 10.8276 10.002C10.8641 9.96713 10.893 9.9255 10.9125 9.8796C10.932 9.8337 10.9418 9.78446 10.9412 9.73483C10.9406 9.6852 10.9296 9.63619 10.909 9.59074C10.8884 9.54529 10.8586 9.50432 10.8212 9.47028C10.7839 9.43625 10.7399 9.40984 10.6918 9.39264C10.6437 9.37544 10.5925 9.3678 10.5412 9.37017C10.441 9.37214 10.3456 9.41243 10.2759 9.48225C10.2063 9.55206 10.168 9.64572 10.1695 9.74275Z" fill="#2E2E2E"/>
<path d="M10.9029 12.9298H7.75817C7.52861 12.9298 7.51423 12.9148 7.51367 12.6964C7.51367 12.5974 7.51367 12.4978 7.51367 12.3988C7.51367 12.1932 7.53801 12.1681 7.74656 12.1675C8.15092 12.1675 8.55529 12.1675 8.95965 12.1675C9.18092 12.1675 9.1942 12.1525 9.1953 11.9438C9.19807 11.4342 9.1339 11.4764 9.68375 11.4764H11.8538C12.0983 11.4764 12.1205 11.4984 12.1221 11.727C12.1254 12.2253 12.0668 12.1654 12.579 12.1675C13.0691 12.1675 13.5592 12.1675 14.0488 12.1675C14.2474 12.1675 14.2795 12.1991 14.2817 12.3859C14.2817 12.4903 14.2817 12.5953 14.2817 12.7002C14.2817 12.9068 14.2584 12.9298 14.0471 12.9298H10.9029Z" fill="#2E2E2E"/>
<path d="M6.07995 4.07919C4.53495 4.07919 2.98996 4.08561 1.44551 4.0733C1.09923 4.07062 0.849195 4.1643 0.707031 4.478V12.5896C0.84477 12.8964 1.08761 12.9965 1.42615 12.9938C2.97502 12.9831 4.52721 12.9895 6.07829 12.989C6.53908 12.989 6.74209 12.7925 6.74209 12.3413C6.74209 9.80314 6.74209 7.26503 6.74209 4.72692C6.74431 4.27565 6.54074 4.07919 6.07995 4.07919ZM3.14097 4.63699C3.15068 4.63235 3.16117 4.62945 3.17195 4.62842C3.35837 4.61664 3.547 4.62414 3.73452 4.6236C3.92204 4.62307 4.09906 4.61611 4.27994 4.62842C4.29206 4.62962 4.30385 4.63288 4.31479 4.63806C4.3317 4.6467 4.34585 4.65964 4.35572 4.67549C4.36559 4.69133 4.3708 4.70949 4.3708 4.72799C4.3708 4.74649 4.36559 4.76464 4.35572 4.78049C4.34585 4.79634 4.3317 4.80928 4.31479 4.81792C4.30522 4.82222 4.2949 4.82476 4.28437 4.82542C3.91559 4.83398 3.54681 4.83398 3.17803 4.82542C3.1652 4.82557 3.15251 4.82282 3.14097 4.81739C3.12392 4.80879 3.10964 4.79584 3.09967 4.77993C3.0897 4.76403 3.08443 4.74579 3.08443 4.72719C3.08443 4.70859 3.0897 4.69034 3.09967 4.67444C3.10964 4.65853 3.12392 4.64558 3.14097 4.63699ZM3.7135 12.61C3.65714 12.6096 3.60217 12.5931 3.55558 12.5624C3.50899 12.5317 3.4729 12.4883 3.4519 12.4377C3.43091 12.3871 3.42596 12.3315 3.43769 12.2782C3.44942 12.2249 3.4773 12.1761 3.51777 12.1382C3.55825 12.1002 3.60948 12.0748 3.66495 12.0651C3.72041 12.0554 3.77759 12.062 3.82921 12.0839C3.88082 12.1058 3.92453 12.142 3.95475 12.1881C3.98498 12.2341 4.00036 12.2878 3.99893 12.3423C3.99836 12.378 3.99052 12.4133 3.97586 12.4461C3.9612 12.4788 3.94002 12.5085 3.91351 12.5334C3.887 12.5582 3.8557 12.5778 3.82138 12.5909C3.78706 12.6041 3.7504 12.6105 3.7135 12.61ZM6.26914 11.6791C6.26914 11.9023 6.24203 11.9269 6.01523 11.9269H1.43168C1.20654 11.9269 1.18497 11.9066 1.18497 11.6919C1.18497 10.6381 1.18497 9.58402 1.18497 8.5298V5.41748C1.18497 5.16962 1.20378 5.14982 1.4527 5.14982C2.96875 5.14982 4.48517 5.14982 6.00196 5.14982C6.24037 5.14982 6.26914 5.17658 6.26914 5.40409C6.26914 7.49575 6.26914 9.58741 6.26914 11.6791Z" fill="#2E2E2E"/>
</svg>