<svg xmlns="http://www.w3.org/2000/svg" width="21" height="18" viewBox="0 0 21 18" fill="none">
<path d="M10.2948 17.6383C9.92037 17.5698 9.53237 17.5423 9.1739 17.4258C7.33192 16.8274 6.18433 15.5773 5.86933 13.6603C5.45221 11.1206 7.07804 8.80411 9.61521 8.3066C12.2361 7.79269 14.5973 9.54771 15.1001 11.9532C15.6268 14.4802 14.0272 16.9115 11.6102 17.4874C11.3132 17.5563 11.0068 17.5891 10.705 17.6383H10.2948ZM10.4999 10.8709H9.96671C9.61686 10.8709 9.4651 11.0165 9.46141 11.363C9.45731 11.7248 9.45608 12.0869 9.46346 12.4487C9.46633 12.5816 9.4245 12.6308 9.28874 12.6242C9.08366 12.6144 8.87859 12.621 8.67352 12.6218C8.49469 12.6218 8.30684 12.614 8.21046 12.808C8.1071 13.0163 8.23302 13.1718 8.3495 13.3256C8.3659 13.3473 8.38477 13.3666 8.40323 13.3875C8.98345 14.0224 9.56381 14.6571 10.1443 15.2914C10.4146 15.5863 10.5819 15.5855 10.8522 15.2914C11.3414 14.7585 11.8304 14.2253 12.3193 13.6919C12.4659 13.5393 12.6028 13.3778 12.7295 13.2083C12.9345 12.9163 12.8012 12.6447 12.4473 12.6267C12.209 12.6148 11.9691 12.6128 11.7308 12.6246C11.5761 12.6324 11.5298 12.5816 11.5339 12.4286C11.5437 12.0595 11.5425 11.6903 11.5339 11.3212C11.5281 11.023 11.3674 10.87 11.0712 10.87C10.8826 10.8672 10.6914 10.8709 10.4999 10.8709Z" fill="#8E8E8E"/>
<path d="M20.9996 9.18918C20.9385 9.50786 20.8934 9.83065 20.8142 10.1448C20.4373 11.6353 19.4685 12.6119 18.0875 13.2017C17.5839 13.4166 17.0519 13.5638 16.5269 13.7443C16.5269 13.2911 16.5232 12.8908 16.5331 12.4909C16.5331 12.4535 16.6151 12.4064 16.6705 12.3834C17.1873 12.1595 17.7336 11.9876 18.2184 11.7087C19.0604 11.2239 19.5243 10.4479 19.6715 9.49392C19.8356 8.41933 19.7269 7.38001 19.1605 6.4297C18.5092 5.33707 17.5334 4.84202 16.264 4.91543C15.2706 4.97245 14.4294 5.39449 13.6538 5.98182C13.5123 6.08887 13.3717 6.19715 13.2166 6.31568C12.9492 6.00971 12.681 5.70292 12.3988 5.37931C12.9976 4.79034 13.7022 4.38716 14.4622 4.04264C14.2571 3.65091 13.9923 3.2935 13.6772 2.98323C12.4706 1.78477 11.0088 1.29054 9.32964 1.48044C7.52499 1.68552 6.16166 2.58005 5.36064 4.22639C5.11455 4.73251 4.9993 5.3063 4.85492 5.85713C4.81391 6.0134 4.74172 6.04293 4.61786 6.07287C4.16916 6.18074 3.70774 6.25744 3.27667 6.41535C2.27386 6.78202 1.56882 7.4563 1.32888 8.52925C0.972872 10.1219 1.89981 12.1049 3.86524 12.4203C4.05637 12.4511 4.25652 12.4244 4.48046 12.4244V13.6959C3.71758 13.7504 2.98875 13.5704 2.31488 13.2037C1.07254 12.5212 0.369133 11.445 0.0820296 10.0771C0.0516787 9.93196 0.0262495 9.78594 0 9.64034V8.82004C0.0160886 8.76842 0.0288297 8.71581 0.0381438 8.66255C0.117462 7.94047 0.39197 7.25363 0.832191 6.67579C1.51591 5.77346 2.46499 5.29523 3.52933 5.011C3.68969 4.96998 3.77008 4.90723 3.82217 4.73743C4.55196 2.35173 6.13527 0.882584 8.5721 0.329977C8.93508 0.247948 9.31036 0.220468 9.6795 0.167969H10.2127C10.5018 0.208984 10.7931 0.236053 11.0797 0.288142C13.0895 0.654405 14.6037 1.72366 15.6041 3.50411C15.7001 3.67474 15.7997 3.70919 15.9732 3.68581C16.7254 3.59107 17.4612 3.67063 18.1614 3.96184C19.5805 4.55163 20.3909 5.66478 20.7904 7.10727C20.8897 7.46574 20.9319 7.83979 21 8.20687L20.9996 9.18918Z" fill="#8E8E8E"/>
</svg>