<svg width="28" height="12" viewBox="0 0 28 12" fill="none" xmlns="http://www.w3.org/2000/svg">
<path d="M13.3521 2.66789C13.4849 2.66789 13.5983 2.69833 13.6924 2.7592C13.7809 2.81454 13.8888 2.91415 14.0161 3.05803L17.4526 6.9843C17.5135 7.0507 17.5605 7.10881 17.5938 7.15862C17.6214 7.20842 17.6353 7.27483 17.6353 7.35783L17.6353 9.38322C17.6353 9.43856 17.6104 9.4856 17.5605 9.52434C17.5107 9.56307 17.4582 9.58244 17.4028 9.58244C17.3143 9.58244 17.2451 9.54924 17.1953 9.48283L13.3521 5.06682L9.50879 9.48283C9.45898 9.54924 9.39258 9.58244 9.30957 9.58244C9.2487 9.58244 9.19336 9.56584 9.14355 9.53264C9.09375 9.4939 9.06885 9.4441 9.06885 9.38322L9.06885 7.35783C9.06885 7.26376 9.08545 7.19459 9.11865 7.15031C9.15186 7.10051 9.19889 7.04517 9.25977 6.9843L12.688 3.05803C12.7987 2.92522 12.9038 2.82837 13.0034 2.7675C13.0975 2.7011 13.2137 2.66789 13.3521 2.66789Z" fill="#2E2E2E"/>
</svg>
