<svg width="35" height="35" viewBox="0 0 35 35" fill="none" xmlns="http://www.w3.org/2000/svg">
<circle cx="17.5" cy="17.5" r="17.5" fill="#FF3F40"/>
<path d="M14.3308 15.2625V18.7259C14.3308 20.2703 14.6325 21.4015 15.236 22.1197C15.8395 22.8301 16.5513 23.1853 17.3714 23.1853C18.1992 23.1853 18.9845 23.1622 19.7273 23.1158V17.0579C19.7273 16.9344 19.7698 16.8263 19.8549 16.7336C19.9478 16.6332 20.0561 16.583 20.1799 16.583H22.5358C22.6596 16.583 22.7679 16.6293 22.8607 16.722C22.9536 16.8147 23 16.9266 23 17.0579V25.027C23 25.3359 22.853 25.529 22.559 25.6062C22.1644 25.6834 21.7195 25.7529 21.2244 25.8147C20.7369 25.8764 20.1219 25.9228 19.3791 25.9537C18.6441 25.9846 17.9749 26 17.3714 26C16.675 26 15.9632 25.8803 15.236 25.6409C14.5164 25.3938 13.8279 24.9807 13.1702 24.4015C12.5126 23.8224 11.9865 23.0618 11.5919 22.1197C11.1973 21.1699 11 20.0386 11 18.7259V15.3089C11 13.8649 11.2012 12.6602 11.6035 11.695C12.0135 10.722 12.5551 9.96525 13.2282 9.42471C13.9091 8.88417 14.6286 8.51351 15.3868 8.31274C16.1451 8.10425 16.9497 8 17.8008 8C18.5048 8 19.1625 8.07336 19.7737 8.22008C20.3849 8.3668 20.9304 8.54054 21.4101 8.74131C21.8897 8.93436 22.2456 9.10425 22.4778 9.25097C22.8259 9.45174 23 9.66795 23 9.89961V11.4865C23 11.8726 22.8027 11.9923 22.4081 11.8456C21.8201 11.6062 21.1393 11.3784 20.3656 11.1622C19.5996 10.9382 18.8221 10.8263 18.0329 10.8263C16.7563 10.8263 15.8201 11.1622 15.2244 11.834C14.6286 12.4981 14.3308 13.6409 14.3308 15.2625Z" fill="white"/>
</svg>
