<svg xmlns="http://www.w3.org/2000/svg" width="30" height="20" viewBox="0 0 30 20" fill="none">
<path d="M27.3416 9.26397H26.7145V8.70433C26.7145 7.90632 26.7145 7.11349 26.7145 6.3103C26.7145 6.18075 26.5798 5.94756 26.4969 5.94238C25.7714 5.94238 25.0408 5.94238 24.2687 5.94238V9.27433H20.916C20.916 9.52306 20.916 9.69407 20.916 9.85989C20.9419 10.461 20.9678 11.0673 20.9989 11.6684C21.5845 11.6684 22.1752 11.715 22.7659 11.7305C23.2841 11.7305 23.7505 11.7305 24.3205 11.7305V15.0159H26.7301V11.7098H29.9999V9.26397H27.3416Z" fill="currentColor"/>
<path d="M17.8797 7.58866C15.807 7.61975 13.7342 7.58866 11.6615 7.58866C11.0656 7.58866 10.4696 7.58866 9.87373 7.58866C9.76491 7.58866 9.56281 7.72857 9.56281 7.8063C9.5369 9.00331 9.56281 10.2055 9.56281 11.4699H14.6618C14.5944 11.7186 14.553 11.8948 14.4908 12.071C13.6669 14.4132 11.2728 15.5532 8.7078 15.1438C7.96021 15.0223 7.24489 14.751 6.60475 14.3462C5.96461 13.9414 5.41287 13.4114 4.98263 12.7881C4.55239 12.1647 4.25254 11.4609 4.10105 10.7188C3.94957 9.97672 3.94959 9.21167 4.10111 8.46958C4.18145 8.02596 4.31724 7.59421 4.50529 7.18447C5.03307 6.03326 5.93472 5.0944 7.06366 4.52053C8.1926 3.94665 9.48246 3.77149 10.7236 4.02352C11.6156 4.22844 12.4411 4.65634 13.1228 5.26717L15.9106 2.45859L15.6723 2.27723C14.6323 1.36327 13.3985 0.697207 12.0637 0.329197C10.729 -0.0388139 9.32821 -0.0991769 7.96679 0.152654C6.01671 0.476154 4.21549 1.39808 2.81263 2.79073C1.40977 4.18337 0.474706 5.97781 0.136967 7.92548C-0.156088 9.62527 0.0231556 11.3729 0.655155 12.9778C1.42538 14.9561 2.82881 16.6237 4.64644 17.7204C6.46407 18.8172 8.59364 19.2814 10.7028 19.0406C12.7997 18.8843 14.7658 17.9621 16.2267 16.4497C18.4238 14.1075 18.9887 11.2678 18.6363 8.18457C18.5637 7.68193 18.3565 7.58348 17.8797 7.58866Z" fill="currentColor"/>
</svg>