<svg xmlns="http://www.w3.org/2000/svg" width="18" height="15" viewBox="0 0 18 15" fill="none">
<path d="M4.13671 12.4337C3.22944 12.4337 2.73828 11.9663 2.73828 11.0973C2.73828 8.11518 2.73828 5.133 2.73828 2.15083C2.73828 1.27527 3.22262 0.814453 4.13671 0.814453C8.22968 0.814453 12.3226 0.814453 16.4156 0.814453C17.3161 0.814453 17.8004 1.28186 17.8004 2.164C17.8004 5.13959 17.8004 8.10859 17.8004 11.0842C17.8004 11.9729 17.3092 12.4337 16.3883 12.4403C14.3487 12.4403 12.3022 12.4403 10.2625 12.4403C8.21603 12.4337 6.17637 12.4337 4.13671 12.4337ZM16.3883 11.4858C16.7703 11.4858 16.8385 11.4265 16.8385 11.0447C16.8385 8.10201 16.8385 5.15275 16.8385 2.21008C16.8385 1.82168 16.7703 1.75584 16.3747 1.75584C12.309 1.75584 8.25014 1.75584 4.18446 1.75584C3.76834 1.75584 3.70695 1.81509 3.70695 2.22983C3.70695 5.16592 3.70695 8.10201 3.70695 11.0381C3.70695 11.4265 3.76834 11.4858 4.17764 11.4858C6.2173 11.4858 8.25696 11.4858 10.3034 11.4858C12.3226 11.4858 14.3555 11.4858 16.3883 11.4858Z" fill="#2E2E2E"/>
<path d="M2.18578 14.1582C1.76284 14.1582 1.39447 14.0265 1.14207 13.7829C0.889674 13.5394 0.766885 13.197 0.773707 12.7757C0.794172 10.7218 0.794172 8.66782 0.78735 6.61388V4.15178C0.78735 4.0267 0.78735 3.92795 0.794172 3.8292C0.835101 3.24988 1.30579 2.82198 1.93338 2.78906L1.90609 2.96022C1.90609 3.1643 1.90609 3.3618 1.90609 3.56588C1.90609 3.60537 1.88563 3.65146 1.87199 3.65804C1.67416 3.76337 1.67416 3.93453 1.68098 4.09253V12.6967C1.68098 13.2431 1.70827 13.276 2.26764 13.276C2.26764 13.276 11.4905 13.276 13.8166 13.2695C13.8712 13.2695 13.9326 13.276 13.994 13.276C14.0554 13.2826 14.1168 13.2826 14.1782 13.2826C14.3214 13.2826 14.4988 13.2629 14.642 13.0851H15.5493L15.5016 13.1773C15.4879 13.2497 15.4743 13.309 15.4538 13.3682C15.2833 13.8554 14.833 14.1384 14.2191 14.1384H7.99097C6.06045 14.1384 4.12994 14.1384 2.19942 14.1516H2.18578V14.1582Z" fill="#2E2E2E"/>
<path d="M1.87869 2.82194V2.96677C1.87869 3.16427 1.87869 3.36835 1.87869 3.56584C1.87869 3.59217 1.86504 3.63167 1.85822 3.63167C1.64675 3.74359 1.65357 3.9345 1.65357 4.09249V4.15174V12.6967C1.65357 13.2628 1.6945 13.3023 2.26752 13.3023H4.02749H6.92668C9.22556 13.3023 11.5244 13.3023 13.8233 13.2957C13.8779 13.2957 13.9393 13.3023 13.9939 13.3023C14.0553 13.3089 14.1167 13.3089 14.178 13.3089C14.3213 13.3089 14.5123 13.2826 14.6556 13.1048C14.6556 13.1048 14.6624 13.1048 14.6692 13.1048H14.6965H14.7306H15.1263H15.3309H15.4878C15.481 13.1246 15.481 13.1443 15.4742 13.1641C15.4605 13.2365 15.4469 13.2957 15.4332 13.355C15.2627 13.8356 14.8261 14.1121 14.2258 14.1121H13.7551C12.7933 14.1121 11.8314 14.1121 10.8764 14.1121C9.92136 14.1121 8.95269 14.1121 7.99767 14.1121C5.65786 14.1121 3.87742 14.1186 2.19248 14.1252C1.77636 14.1252 1.41482 13.9936 1.16924 13.7566C0.923661 13.5196 0.800872 13.1838 0.807693 12.7691C0.828158 10.7086 0.828158 8.61512 0.821337 6.59409C0.821337 5.77778 0.821337 4.96147 0.821337 4.14516V4.13858C0.821337 4.03983 0.821337 3.9345 0.828158 3.83575C0.862266 3.28276 1.29203 2.87461 1.87869 2.82194ZM1.93326 2.7627C1.27838 2.79561 0.807693 3.2301 0.766764 3.82917C0.759942 3.9345 0.759942 4.04641 0.759942 4.15174C0.759942 7.02858 0.780407 9.89884 0.746299 12.7757C0.732656 13.7434 1.40117 14.1845 2.18566 14.1845C2.19248 14.1845 2.19248 14.1845 2.1993 14.1845C4.12982 14.1713 6.06033 14.1713 7.99085 14.1713C9.91454 14.1713 11.8314 14.1713 13.7551 14.1713C13.912 14.1713 14.0689 14.1713 14.2258 14.1713C14.8466 14.1713 15.3104 13.8817 15.4878 13.3813C15.5219 13.2892 15.5287 13.1904 15.556 13.0588C15.4059 13.0588 15.2627 13.0588 15.1263 13.0588C14.9898 13.0588 14.8602 13.0588 14.7306 13.0588C14.717 13.0588 14.6965 13.0588 14.676 13.0588C14.6556 13.0588 14.6351 13.0588 14.6283 13.0719C14.5055 13.2299 14.3486 13.2628 14.1849 13.2628C14.0689 13.2628 13.9461 13.2431 13.8301 13.2431C11.5313 13.2431 9.23238 13.2497 6.9335 13.2497C5.37817 13.2497 3.82967 13.2497 2.27434 13.2497C1.73543 13.2497 1.71497 13.2299 1.71497 12.7033C1.71497 9.85276 1.71497 7.00883 1.71497 4.15832C1.71497 3.98058 1.68768 3.79625 1.89233 3.68434C1.91962 3.67117 1.94008 3.61192 1.94008 3.57242C1.93326 3.29593 1.93326 3.0326 1.93326 2.7627Z" fill="white"/>
<path d="M8.0251 3.94141C7.43844 4.50756 6.91318 5.02104 6.38109 5.53453C5.88994 6.00852 5.39196 6.48251 4.90763 6.96308C4.83259 7.03549 4.75755 7.15399 4.75755 7.25274C4.74391 8.27971 4.75073 9.31326 4.75073 10.3402C4.75073 10.3797 4.76437 10.4258 4.77119 10.4785C8.4344 10.4785 12.084 10.4785 15.7745 10.4785C15.7745 10.0045 15.7745 9.53709 15.7676 9.06969C15.7676 9.03019 15.7131 8.97752 15.6721 8.94461C14.8876 8.18096 14.1032 7.4239 13.2914 6.63392C12.8821 7.05524 12.4864 7.4634 12.0703 7.88472C10.6992 6.54834 9.3826 5.25804 8.0251 3.94141Z" fill="#2E2E2E"/>
<path d="M12.8062 4.18538C12.7994 5.00169 13.4474 5.63368 14.2933 5.63368C15.1256 5.63368 15.7736 5.01486 15.7736 4.20513C15.7804 3.38224 15.1324 2.75684 14.2865 2.75684C13.4543 2.76342 12.813 3.38224 12.8062 4.18538Z" fill="#2E2E2E"/>
<path d="M4.01316 11.7758C3.59704 11.7758 3.53564 11.7165 3.53564 11.3018C3.53564 8.18795 3.53564 5.07411 3.53564 1.96028C3.53564 1.52579 3.59704 1.45996 4.0268 1.45996C8.1948 1.45996 12.3628 1.45996 16.5308 1.45996C16.9401 1.45996 17.0083 1.52579 17.0083 1.94053C17.0083 5.06095 17.0083 8.18795 17.0083 11.3084C17.0083 11.7099 16.9401 11.7758 16.5513 11.7758C14.4707 11.7758 12.3833 11.7758 10.3027 11.7758C8.1948 11.7758 6.10057 11.7758 4.01316 11.7758ZM6.51669 5.57443C6.046 6.03526 5.56166 6.48291 5.09779 6.95032C5.02276 7.02273 4.95454 7.13464 4.94772 7.23339C4.93407 8.22745 4.9409 9.22151 4.9409 10.209C4.9409 10.2485 4.95454 10.288 4.96136 10.3472C8.49495 10.3472 12.0149 10.3472 15.569 10.3472C15.569 9.89299 15.569 9.43875 15.5621 8.98451C15.5621 8.94501 15.5076 8.89893 15.4735 8.85943C14.7163 8.12212 13.9591 7.39139 13.1814 6.63432C12.7857 7.04248 12.4037 7.43089 12.0081 7.83904C10.6847 6.54874 9.40905 5.30453 8.10612 4.03398C7.53993 4.58696 7.02831 5.0807 6.51669 5.57443ZM14.1569 5.67318C14.9618 5.67318 15.5826 5.07411 15.5894 4.2973C15.5962 3.50732 14.9687 2.90167 14.1569 2.90167C13.3519 2.90167 12.7312 3.50074 12.7243 4.27755C12.7107 5.06095 13.3383 5.67318 14.1569 5.67318Z" fill="white"/>
</svg>