<svg width="35" height="35" viewBox="0 0 35 35" fill="none" xmlns="http://www.w3.org/2000/svg">
<mask id="mask0_1897_7549" style="mask-type:alpha" maskUnits="userSpaceOnUse" x="0" y="0" width="35" height="35">
<rect width="35" height="35" rx="17.5" fill="#FF3F40"/>
</mask>
<g mask="url(#mask0_1897_7549)">
<rect width="35" height="35" rx="17.5" fill="#FF3F40"/>
<path d="M29.4249 5.39001L29.3718 5.3885L26.604 5.31451L25.9545 5.29639L24.8028 2.30371L23.6526 5.29488L23.6511 5.29639L20.1807 5.39001L22.859 7.51901L21.991 10.8333L24.8028 9.01988L27.6131 10.8333H27.6146L26.7451 7.51901L29.4249 5.39001Z" fill="#FFF100"/>
<path d="M6.4978 2.96719C9.59643 2.96719 12.4523 4.76703 13.774 7.55436L21.8437 24.5637C21.9545 24.7962 22.1897 24.9442 22.4477 24.9442H22.4492C22.7087 24.9442 22.9439 24.7932 23.0531 24.5592L27.959 14.0516C28.6176 12.6413 30.0531 11.7293 31.6176 11.7293C31.9803 11.7293 32.3384 11.7776 32.6844 11.8728L23.8604 30.774C23.8088 30.8858 23.7512 30.993 23.6935 31.0926C23.6859 31.1047 23.6798 31.1168 23.6738 31.1289C23.4583 31.5502 23.1396 31.9186 22.7542 32.1934C22.7451 32.2009 22.7345 32.207 22.7254 32.2145C22.0122 32.7823 21.1154 33.0948 20.2018 33.0948C19.6146 33.0948 19.044 32.968 18.5008 32.7173C17.5129 32.2734 16.8422 31.2029 16.4522 30.383L3.68598 3.47453C4.58734 3.13631 5.52967 2.96568 6.4978 2.96568M6.4978 2.30131C5.25198 2.30131 3.98643 2.56857 2.78613 3.13178L15.8483 30.6653C16.3809 31.7872 17.1715 32.8472 18.2246 33.3213C18.865 33.6172 19.5387 33.7577 20.2018 33.7577C21.2701 33.7577 22.3096 33.3938 23.1411 32.7309C23.6267 32.3851 24.0061 31.9352 24.2671 31.4278C24.3384 31.3071 24.4052 31.1802 24.4659 31.0519L33.5948 11.4998C32.9545 11.2039 32.2807 11.0634 31.6176 11.0634C29.8452 11.0634 28.1487 12.066 27.3536 13.7692L22.4477 24.2768L14.3779 7.26747C12.8923 4.13588 9.76183 2.2998 6.4978 2.2998V2.30131Z" fill="white"/>
<path d="M29.9673 13.7709L25.0614 24.2785L16.9917 7.26918C15.5061 4.13759 12.3756 2.30151 9.11157 2.30151C7.86575 2.30151 6.6002 2.56877 5.3999 3.13197L18.4621 30.6655C18.9947 31.7874 19.7853 32.8474 20.8384 33.3215C22.5106 34.0961 24.4074 33.8047 25.7549 32.7326C26.2405 32.3868 26.6199 31.9369 26.8809 31.4296C26.9522 31.3088 27.0189 31.1819 27.0796 31.0536L36.2086 11.5015C33.855 10.4144 31.0614 11.4305 29.9689 13.7724L29.9673 13.7709Z" fill="white"/>
<path d="M29.4249 5.44982L29.3718 5.44831L26.604 5.37432L25.9545 5.3562L24.8028 2.36353L23.6526 5.3547L23.6511 5.3562L20.1807 5.44982L22.859 7.57882L21.991 10.8931L24.8028 9.07969L27.6131 10.8931H27.6146L26.7451 7.57882L29.4249 5.44982Z" fill="#FFF100"/>
<path d="M6.4978 3.02823C9.59643 3.02823 12.4523 4.82806 13.774 7.61539L21.8437 24.6247C21.9545 24.8573 22.1897 25.0052 22.4477 25.0052H22.4492C22.7087 25.0052 22.9439 24.8543 23.0531 24.6202L27.959 14.1126C28.6176 12.7023 30.0531 11.7903 31.6176 11.7903C31.9803 11.7903 32.3384 11.8387 32.6844 11.9338L23.8604 30.8351C23.8088 30.9468 23.7512 31.054 23.6935 31.1537C23.6859 31.1658 23.6798 31.1778 23.6738 31.1899C23.4583 31.6112 23.1396 31.9796 22.7542 32.2544C22.7451 32.262 22.7345 32.268 22.7254 32.2756C22.0122 32.8433 21.1154 33.1558 20.2018 33.1558C19.6146 33.1558 19.044 33.029 18.5008 32.7784C17.5129 32.3344 16.8422 31.2639 16.4522 30.444L3.68598 3.53556C4.58734 3.19734 5.52967 3.02672 6.4978 3.02672M6.4978 2.36235C5.25198 2.36235 3.98643 2.62961 2.78613 3.19281L15.8483 30.7264C16.3809 31.8482 17.1715 32.9082 18.2246 33.3823C18.865 33.6783 19.5387 33.8187 20.2018 33.8187C21.2701 33.8187 22.3096 33.4548 23.1411 32.792C23.6267 32.4462 24.0061 31.9962 24.2671 31.4889C24.3384 31.3681 24.4052 31.2413 24.4659 31.1129L33.5948 11.5608C32.9545 11.2649 32.2807 11.1245 31.6176 11.1245C29.8452 11.1245 28.1487 12.1271 27.3536 13.8303L22.4477 24.3379L14.3779 7.32851C12.8923 4.19691 9.76183 2.36084 6.4978 2.36084V2.36235Z" fill="white"/>
<path d="M29.9673 13.832L25.0614 24.3396L16.9917 7.33022C15.5061 4.19862 12.3756 2.36255 9.11157 2.36255C7.86575 2.36255 6.6002 2.62981 5.3999 3.19301L18.4621 30.7266C18.9947 31.8484 19.7853 32.9084 20.8384 33.3825C22.5106 34.1571 24.4074 33.8657 25.7549 32.7937C26.2405 32.4479 26.6199 31.9979 26.8809 31.4906C26.9522 31.3698 27.0189 31.243 27.0796 31.1146L36.2086 11.5625C33.855 10.4754 31.0614 11.4916 29.9689 13.8335L29.9673 13.832Z" fill="white"/>
</g>
</svg>
