<svg xmlns="http://www.w3.org/2000/svg" width="15" height="17" viewBox="0 0 15 17" fill="none">
<path d="M0.000125361 9.67213C-0.0172799 6.77462 1.77909 4.1133 4.54508 2.94011C5.02373 2.73654 5.44653 2.8635 5.61406 3.26143C5.78159 3.65935 5.59593 4.01471 5.12889 4.22253C3.20488 5.07938 1.99956 6.50934 1.5579 8.53653C0.882719 11.6341 3.04025 14.8345 6.21382 15.4565C9.63106 16.1261 12.7734 14.0748 13.4522 10.7318C13.9773 8.14358 12.5095 5.37161 10.0437 4.29843C9.95596 4.26013 9.86603 4.2275 9.779 4.18281C9.38158 3.99201 9.22421 3.60615 9.39173 3.23944C9.55346 2.88478 9.93275 2.73654 10.3345 2.89826C11.9481 3.54515 13.1767 4.62329 14.0404 6.10007C16.5837 10.4439 13.8134 16.0573 8.76587 16.8964C4.35653 17.6291 0.0356612 14.3833 0.000125361 9.67213Z" fill="#8E8E8E"/>
<path d="M7.00082 4.72216C7.00082 3.41632 6.99732 2.10986 7.00481 0.804018C7.00017 0.617917 7.03228 0.433263 7.09828 0.266505C7.19824 0.0438474 7.38716 -0.0414524 7.59808 0.0187592C7.809 0.0789708 7.94794 0.235772 7.97443 0.500452C7.9957 0.760042 8.00371 1.02107 7.99842 1.28195C7.99842 3.62351 7.99842 5.96507 7.99842 8.30663C7.99842 8.45277 7.99842 8.59891 7.99093 8.74567C7.97343 9.17531 7.79101 9.43999 7.50712 9.44438C7.21273 9.4494 7.00981 9.1728 7.00731 8.73815C7.00281 7.72459 7.00731 6.71102 7.00731 5.69746V4.72216H7.00082Z" fill="#8E8E8E"/>
</svg>