<svg width="16" height="19" viewBox="0 0 16 19" fill="none" xmlns="http://www.w3.org/2000/svg">
<path d="M7.65854 19.0004C7.48095 18.9726 7.30106 18.9544 7.12597 18.9151C6.10549 18.6852 5.28827 18.1687 4.78868 17.2188C4.7208 17.0861 4.66701 16.9466 4.6282 16.8027C4.57289 16.606 4.69414 16.3981 4.88154 16.3379C4.97262 16.3104 5.07083 16.3195 5.15531 16.3633C5.23978 16.4071 5.30388 16.4822 5.33398 16.5726C5.61028 17.3584 6.19585 17.8139 6.9584 18.0465C7.93818 18.3451 8.87414 18.2285 9.72642 17.6337C10.0956 17.3787 10.3727 17.0111 10.5163 16.5855C10.5789 16.4075 10.7041 16.322 10.8752 16.3232C11.027 16.3232 11.1566 16.4196 11.2123 16.5724C11.2523 16.6821 11.2419 16.7906 11.2031 16.8982C10.9527 17.5921 10.4885 18.1056 9.86269 18.4789C9.38096 18.7658 8.8398 18.9379 8.28105 18.982C8.2538 18.9862 8.22688 18.9923 8.2005 19.0004H7.65854Z" fill="#FF3F40"/>
<path d="M7.95605 0.5L8.1084 0.514648C8.45097 0.575309 8.69663 0.813843 8.77734 1.17676V1.17773C8.81243 1.33498 8.88185 1.48838 9 1.61914C9.1174 1.74905 9.26158 1.83246 9.4082 1.88477C10.297 2.20191 11.0357 2.70389 11.6006 3.43848C11.94 3.88008 12.1701 4.36224 12.2744 4.88574L12.3115 5.1123C12.338 5.32196 12.3508 5.53807 12.3613 5.76855C12.3716 5.99326 12.3797 6.23996 12.3984 6.48242C12.4186 6.7427 12.4399 7.00511 12.4639 7.26855L12.5469 8.06152C12.614 8.62048 12.7213 9.17359 12.8672 9.7168L13.0254 10.2568C13.2398 10.9291 13.5226 11.5968 13.9502 12.209V12.21C14.1629 12.5158 14.4137 12.7934 14.6953 13.0371L14.6963 13.0381C15.0611 13.3525 15.2742 13.7284 15.335 14.1729L15.3516 14.3682C15.3648 14.7575 15.2472 15.0003 14.9668 15.1523C14.8804 15.1991 14.7762 15.2269 14.6475 15.2383L14.5098 15.2441C12.3152 15.2457 10.1203 15.2467 7.92578 15.2461L1.3418 15.2441C1.14754 15.2441 1.00075 15.2146 0.885742 15.1523C0.605489 15.0005 0.48691 14.7575 0.500977 14.3682C0.520247 13.8376 0.740054 13.3976 1.15723 13.0381V13.0371C1.43854 12.7937 1.68889 12.5164 1.90137 12.2109C2.32992 11.5983 2.61257 10.9295 2.82715 10.2568C2.99875 9.72073 3.13125 9.17283 3.22461 8.61816L3.30469 8.06055C3.36753 7.53211 3.41144 7.00256 3.45312 6.4834V6.48242C3.47198 6.23985 3.48092 5.99323 3.49121 5.76855C3.49649 5.65333 3.50194 5.54153 3.50977 5.43262L3.54102 5.1123C3.61833 4.50006 3.8642 3.94346 4.25195 3.43848C4.81664 2.70389 5.55534 2.20192 6.44434 1.88477C6.5909 1.83248 6.73422 1.74884 6.85156 1.61914C6.96972 1.48843 7.039 1.33486 7.07422 1.17773L7.0752 1.17676C7.15574 0.813885 7.40104 0.575272 7.74414 0.514648L7.89648 0.5H7.95605Z" fill="white" stroke="#FF3F40"/>
</svg>
