<svg xmlns="http://www.w3.org/2000/svg" width="17" height="15" viewBox="0 0 17 15" fill="none">
<path d="M0.747718 1.68544L9.58287 0V0.171419C9.58287 0.59586 9.58287 1.02021 9.58287 1.44447C9.58287 1.64053 9.58287 1.6408 9.77234 1.64108L12.7768 1.64519C13.7106 1.64519 14.6444 1.66025 15.5776 1.64108C16.0218 1.63177 16.3355 2.01294 16.3355 2.39987C16.3247 5.67162 16.3247 8.94319 16.3355 12.2146C16.3372 12.3171 16.3185 12.4189 16.2804 12.514C16.2424 12.6091 16.1859 12.6954 16.1142 12.7679C16.0425 12.8404 15.9571 12.8975 15.8631 12.9359C15.7691 12.9743 15.6684 12.9932 15.5671 12.9914C13.6323 12.9791 11.6965 12.9862 9.7626 12.9865C9.58477 12.9865 9.58396 12.9865 9.58396 13.1634C9.58396 13.7198 9.58396 14.2766 9.58396 14.8338V15C9.41398 14.9696 9.26051 14.9433 9.10758 14.914C7.40002 14.5885 5.69247 14.2627 3.98491 13.9364C2.95908 13.7406 1.93352 13.5435 0.9066 13.3532C0.778303 13.3288 0.746094 13.2784 0.746094 13.1492C0.749342 9.38506 0.749883 5.62069 0.747718 1.85604V1.68544ZM9.59262 4.63379C9.64486 4.56972 9.67382 4.53439 9.70088 4.49989C10.0885 4.04204 10.5754 3.77944 11.1722 3.72796C11.2881 3.71782 11.329 3.75233 11.3279 3.87692C11.3216 4.47935 11.3249 5.08178 11.3249 5.68422C11.3249 5.87371 11.3249 5.87426 11.5062 5.87426H13.4675C13.4253 6.71821 13.0791 7.36801 12.3578 7.74371C11.2957 8.29603 10.3773 8.01754 9.58531 7.1139V7.28395C9.58531 7.76781 9.59072 8.25167 9.58233 8.73526C9.5799 8.87217 9.61589 8.91024 9.75421 8.90969C11.2653 8.90421 12.7765 8.90613 14.2876 8.90613H14.4931V9.3815C14.4931 9.57319 14.4931 9.57319 14.3012 9.57319H9.76774C9.71117 9.57319 9.6546 9.57812 9.58558 9.58113V10.3731C9.58558 10.548 9.58558 10.5483 9.76449 10.5483H14.4849V11.2129H9.58585V11.3657C9.58585 11.6943 9.5937 12.0229 9.58206 12.3515C9.57692 12.4963 9.62618 12.5229 9.75773 12.5226C11.5802 12.5186 13.4027 12.5176 15.2252 12.5196C15.3516 12.5196 15.4783 12.5128 15.6042 12.5221C15.7168 12.5306 15.746 12.4824 15.7395 12.3791C15.733 12.2655 15.7368 12.151 15.7368 12.0371C15.7368 8.79222 15.7368 5.54748 15.7368 2.30293C15.7368 2.19805 15.7593 2.1003 15.5874 2.10084C13.6342 2.1065 11.6811 2.10714 9.72795 2.10276C9.61644 2.10276 9.58206 2.13425 9.58287 2.24871C9.58775 2.99244 9.58531 3.73645 9.58585 4.48017C9.58396 4.52043 9.58829 4.55959 9.59262 4.63379ZM4.45425 8.20074C4.62179 8.20074 4.76958 8.19909 4.91736 8.20074C5.62543 8.20895 6.1757 7.92691 6.48453 7.26971C6.72813 6.74943 6.71568 6.19847 6.52973 5.65875C6.39765 5.27538 6.12373 5.02729 5.73722 4.92269C5.57482 4.8786 5.39997 4.84245 5.23242 4.84903C4.72438 4.86874 4.21687 4.90927 3.70937 4.94542C3.5264 4.95829 3.5264 4.96294 3.5264 5.15161V8.22949C3.5264 8.72239 3.53019 9.21529 3.52369 9.70682C3.52207 9.82812 3.56186 9.86646 3.67635 9.86783C3.84714 9.86975 4.0182 9.88481 4.18872 9.89521C4.27155 9.90069 4.3541 9.91 4.45425 9.91931V8.20074Z" fill="#2E2E2E"/>
<path d="M4.34326 6.91888V5.79391C4.63801 5.7697 4.92678 5.74142 5.20658 5.82931C5.35964 5.87732 5.47921 5.96052 5.50372 6.06935C5.5375 6.22071 5.55783 6.37938 5.52794 6.52992C5.4813 6.76224 5.24634 6.8904 4.90944 6.91644C4.72859 6.93047 4.54355 6.91888 4.34326 6.91888Z" fill="#2E2E2E"/>
<path d="M13.9007 5.33278C13.7231 4.32462 12.7363 3.49512 11.6799 3.46215C11.5747 3.45892 11.5373 3.48776 11.5391 3.59285C11.5446 3.93077 11.5409 4.26987 11.5409 4.6069V5.60771C11.541 5.65068 11.5587 5.69185 11.5901 5.72221C11.6215 5.75256 11.6641 5.76961 11.7085 5.76961C11.7203 5.76961 11.7328 5.76961 11.7462 5.76961C12.3432 5.7596 12.94 5.75754 13.5371 5.75459C13.9746 5.75106 13.9746 5.75253 13.9007 5.33278Z" fill="#2E2E2E"/>
</svg>