<svg xmlns="http://www.w3.org/2000/svg" width="44" height="23" viewBox="0 0 44 23" fill="none">
<g clip-path="url(#clip0_1909_19827)">
<path d="M25.6047 22.3373C21.6958 22.3373 17.787 22.3373 13.8781 22.3373C12.5752 22.3373 11.5859 21.5693 11.3687 20.3304C11.2964 19.9588 11.3205 19.5376 11.417 19.1411C12.4545 13.8637 13.5162 8.58626 14.5779 3.30882C14.8915 1.77267 16.2427 0.657715 17.7628 0.657715C25.6047 0.657715 33.4465 0.657715 41.3124 0.657715C43.0256 0.657715 44.1114 2.04521 43.7736 3.77958C42.7119 9.05702 41.6502 14.3097 40.6127 19.5871C40.2749 21.2224 38.972 22.3373 37.3312 22.3373C33.4224 22.3373 29.5135 22.3373 25.6047 22.3373ZM41.6261 4.34944C41.4572 4.47333 41.3607 4.54766 41.2401 4.62199C37.2347 7.64475 33.2293 10.6675 29.224 13.6903C27.8004 14.7557 26.1355 14.607 24.9049 13.2938C22.1543 10.3206 19.4036 7.32265 16.6529 4.34944C16.5805 4.27511 16.5082 4.20078 16.3875 4.10168C15.35 9.30479 14.3124 14.4336 13.2749 19.5871C13.2267 20.1074 13.3714 20.3056 13.9264 20.3056C21.72 20.3056 29.5135 20.3056 37.3071 20.3056C38.0309 20.3056 38.5376 19.8844 38.6824 19.1411C39.5028 15.0282 40.3473 10.9153 41.1677 6.80234C41.3124 6.00948 41.4572 5.21663 41.6261 4.34944ZM17.9317 2.71418C17.98 2.78851 17.98 2.78851 18.0041 2.81329C20.8272 5.8856 23.6744 8.95791 26.4974 12.0054C26.9317 12.4762 27.535 12.501 28.0417 12.1046C32.1194 9.03224 36.173 5.95993 40.2508 2.88762C40.299 2.83807 40.3714 2.78851 40.4438 2.71418C32.9157 2.71418 25.4358 2.71418 17.9317 2.71418Z" fill="white"/>
<path d="M6.10862 9.45339C7.65286 9.45339 9.19709 9.45339 10.7413 9.45339C11.4411 9.45339 11.8995 10.0728 11.7065 10.7418C11.5858 11.163 11.2239 11.4603 10.7655 11.4851C10.3794 11.5099 9.99334 11.4851 9.60728 11.4851C6.95313 11.4851 4.27484 11.4851 1.62069 11.4851C1.06573 11.4851 0.703797 11.2621 0.534897 10.8161C0.29361 10.1471 0.752055 9.45339 1.50004 9.45339C3.02015 9.42862 4.56439 9.45339 6.10862 9.45339Z" fill="white"/>
<path d="M9.00418 3.20947C9.9452 3.20947 10.9103 3.20947 11.8514 3.20947C12.5028 3.20947 12.9613 3.6059 12.9613 4.20054C12.9613 4.79518 12.527 5.21639 11.8755 5.21639C9.9452 5.21639 8.01491 5.21639 6.08461 5.21639C5.45727 5.21639 5.02295 4.79518 5.02295 4.22532C5.02295 3.63068 5.45727 3.20947 6.10874 3.20947C7.07389 3.20947 8.03903 3.20947 9.00418 3.20947Z" fill="white"/>
<path d="M6.97748 17.06C6.25362 17.06 5.52976 17.06 4.83002 17.06C4.17855 17.06 3.69598 16.6388 3.7201 16.0194C3.7201 15.4247 4.17855 15.0283 4.83002 15.0283C6.27775 15.0283 7.70134 15.0283 9.14906 15.0283C9.80053 15.0283 10.2348 15.4495 10.2348 16.0442C10.2348 16.6388 9.80053 17.06 9.14906 17.06C8.4252 17.06 7.70134 17.06 6.97748 17.06Z" fill="white"/>
</g>
<defs>
<clipPath id="clip0_1909_19827">
<rect width="43.3592" height="21.6796" fill="white" transform="translate(0.462402 0.657715)"/>
</clipPath>
</defs>
</svg>