<svg width="15" height="15" viewBox="0 0 15 15" fill="none" xmlns="http://www.w3.org/2000/svg">
<path d="M7.25887 14.5174C5.22986 14.5174 3.20086 14.5174 1.18635 14.5174C1.05591 14.5174 0.925474 14.5174 0.809531 14.5023C0.447209 14.4719 0.20083 14.29 0.0993798 13.9263C-0.0165633 13.5625 -0.0310562 13.1987 0.0559011 12.8197C0.113873 12.4863 0.360252 12.2741 0.606631 12.1073C1.0849 11.7587 1.57765 11.4252 2.08491 11.1069C2.92549 10.5764 3.76608 10.0762 4.60667 9.54565C4.76609 9.4547 4.89652 9.31828 5.04145 9.19702C5.38928 8.84839 5.40378 8.4846 5.07044 8.10565C4.24435 7.15071 3.80956 6.01387 3.80956 4.74061C3.80956 3.98272 3.85304 3.22483 3.99797 2.49725C4.28782 0.951154 5.27334 0.102315 6.7806 0.0113684C7.28785 -0.0189473 7.80959 0.0113684 8.31685 0.102315C9.34584 0.269052 10.0705 0.90568 10.3893 1.95157C10.8531 3.43704 10.9256 4.93766 10.4328 6.45345C10.2299 7.07492 9.88208 7.63576 9.46178 8.12081C9.12845 8.4846 9.12845 8.89386 9.51976 9.19702C10.027 9.59112 10.5632 9.95491 11.0995 10.3035C11.8096 10.7583 12.5488 11.1524 13.2589 11.6071C13.6067 11.8193 13.9256 12.0922 14.2155 12.3802C14.5923 12.7439 14.6357 13.7292 14.3314 14.1688C14.143 14.4416 13.8676 14.5174 13.5488 14.5174C11.8966 14.5174 10.2444 14.5174 8.59221 14.5174C8.14293 14.5174 7.69365 14.5174 7.25887 14.5174Z" fill="white"/>
</svg>
