<svg xmlns="http://www.w3.org/2000/svg" width="17" height="15" viewBox="0 0 17 15" fill="none">
<path d="M13.9487 9.45068C13.9487 7.84259 13.9487 6.23461 13.9487 4.62673C13.9487 4.39546 13.964 4.38055 14.1982 4.38055H16.5824C16.7695 4.38055 16.8194 4.42774 16.8194 4.61897C16.8194 7.85066 16.8194 11.0823 16.8194 14.3137C16.8194 14.5211 16.7711 14.5646 16.5615 14.5646C15.7715 14.5646 14.9819 14.5646 14.1929 14.5646C13.9837 14.5646 13.9503 14.531 13.9503 14.3218C13.9493 12.698 13.9487 11.0743 13.9487 9.45068Z" fill="#8E8E8E"/>
<path d="M15.4275 0.12597C16.3553 0.101445 17.0005 0.715808 16.9999 1.70239C16.9993 2.68897 16.345 3.3232 15.3611 3.32413C14.4361 3.32413 13.798 2.65948 13.794 1.70208C13.7902 0.750267 14.5505 0.0794036 15.4275 0.12597Z" fill="#8E8E8E"/>
<path d="M12.6093 14.4168C12.5992 14.3667 12.5844 14.3176 12.565 14.2703C11.7321 11.9343 10.8989 9.59887 10.0654 7.26394C9.36104 5.28436 8.65883 3.30447 7.9588 1.32427C7.91109 1.18892 7.84341 1.14453 7.70058 1.14701C7.17572 1.15539 6.65116 1.15042 6.1263 1.15042C5.59613 1.15042 5.06597 1.1557 4.5358 1.14701C4.38486 1.14453 4.3384 1.19854 4.33122 1.33979C4.31656 1.62198 4.31501 1.90573 4.23392 2.18171C4.02404 2.89572 3.7574 3.58832 3.51321 4.2896C2.7111 6.59287 1.90889 8.89593 1.10657 11.1988C0.747928 12.2294 0.39043 13.2604 0.0340756 14.2917C-0.0407713 14.509 0.00101821 14.5643 0.226183 14.5643C0.979641 14.5643 1.733 14.5643 2.48625 14.5643C2.7295 14.5643 2.77784 14.5239 2.85112 14.296C3.1502 13.3647 3.45364 12.435 3.75022 11.5021C3.77798 11.4142 3.8179 11.3934 3.90304 11.3937C5.40974 11.3958 6.91645 11.3958 8.42316 11.3937C8.5108 11.3937 8.54791 11.4207 8.57566 11.5024C8.89938 12.4477 9.22777 13.3914 9.55366 14.3358C9.6282 14.5512 9.64161 14.5636 9.87519 14.5636H12.3844C12.4209 14.5636 12.4574 14.5636 12.4936 14.5618C12.5875 14.5593 12.6218 14.5016 12.6093 14.4168ZM7.6407 8.80745C6.64274 8.80455 5.64478 8.80455 4.64683 8.80745C4.52925 8.80745 4.53892 8.76709 4.56761 8.68327C5.06659 7.2242 5.52285 5.75178 5.95134 4.27067C6.02089 4.02976 6.07204 3.78358 6.14065 3.50264C6.26539 3.93725 6.37828 4.34083 6.49679 4.74192C6.82518 5.8595 7.19068 6.96281 7.5434 8.07139C7.60858 8.27629 7.66815 8.48335 7.73644 8.687C7.77293 8.79131 7.73738 8.80776 7.6407 8.80745Z" fill="#8E8E8E"/>
</svg>