<svg xmlns="http://www.w3.org/2000/svg" width="18" height="15" viewBox="0 0 18 15" fill="none">
<path d="M16.4758 2.21086C16.1563 2.05183 15.8252 1.91304 15.4847 1.79548C14.4727 1.44732 13.305 1.2223 11.8336 1.08785C10.9079 1.00166 9.97798 0.957735 9.0474 0.956227C7.34582 0.949813 5.64913 1.1222 3.99111 1.46997C2.93469 1.6957 2.17878 1.97876 1.5373 2.38989C0.935532 2.7706 0.657611 3.25462 0.662282 3.9113C0.691864 6.82958 0.691086 9.45419 0.662282 11.9422C0.653718 12.6944 0.964336 13.216 1.61282 13.5408C2.42401 13.9448 3.0538 14.189 3.6548 14.3305C5.43106 14.7481 7.25862 14.9583 9.09333 14.956C10.7246 14.9507 12.3513 14.8002 13.9503 14.5067C15.1835 14.2838 16.0655 13.9738 16.8089 13.5004C17.4029 13.1226 17.6723 12.6598 17.6559 12.0434C17.631 11.0839 17.6365 10.1088 17.6419 9.16618C17.6419 8.77486 17.6419 8.3701 17.6419 7.9717C17.6419 7.5733 17.6373 7.18057 17.6334 6.79491C17.6232 5.89126 17.6124 4.95506 17.6583 4.03514C17.7042 3.20225 17.3383 2.63898 16.4758 2.21086ZM2.21926 3.19659C2.36314 3.0962 2.52406 3.0178 2.6957 2.96449C2.91601 2.90505 3.14099 2.84136 3.35819 2.7805C4.17172 2.55052 5.01249 2.31347 5.86805 2.19883C6.99516 2.04679 8.13293 1.96921 9.27238 1.96673C10.7428 1.96484 12.2091 2.10719 13.6459 2.39131C14.289 2.51939 14.9118 2.73592 15.5143 2.94468L15.8421 3.0579C15.9532 3.09931 16.0547 3.15959 16.141 3.23551C16.201 3.28538 16.2491 3.34592 16.2823 3.41338C16.3155 3.48083 16.3332 3.55377 16.3341 3.62767C16.3351 3.70157 16.3193 3.77486 16.2878 3.843C16.2564 3.91114 16.2098 3.97268 16.1511 4.02382C16.0638 4.1035 15.9586 4.16527 15.8428 4.20497C15.6615 4.26229 15.4762 4.32314 15.2979 4.38188C14.6284 4.60195 13.9371 4.8291 13.2248 4.94798C11.8548 5.17654 10.4651 5.2933 9.07231 5.29685C7.33189 5.29836 5.59823 5.10007 3.91248 4.70668C3.47052 4.59135 3.03921 4.44466 2.62252 4.26795L2.43179 4.19294C2.35691 4.16269 2.28568 4.12546 2.21926 4.08184C2.14135 4.03178 2.07779 3.96545 2.03392 3.88843C1.99005 3.81141 1.96716 3.72595 1.96716 3.63922C1.96716 3.55249 1.99005 3.46702 2.03392 3.39C2.07779 3.31298 2.14135 3.24666 2.21926 3.19659ZM1.81445 6.18068C1.82453 6.09796 1.82973 6.01482 1.83002 5.93159C1.83075 5.84743 1.85307 5.76458 1.89519 5.68963C1.93731 5.61468 1.99808 5.54969 2.07266 5.49982C2.14725 5.44995 2.23361 5.41657 2.32487 5.40234C2.41613 5.38812 2.50978 5.39343 2.59839 5.41785C4.7318 6.00972 6.94919 6.31394 9.17974 6.32079C11.415 6.31238 13.637 6.00699 15.7751 5.41431C15.8309 5.39909 15.8889 5.39146 15.9472 5.39167C16.1029 5.392 16.2524 5.44757 16.3638 5.54656C16.4752 5.64555 16.5396 5.78014 16.5435 5.92169C16.5504 6.09318 16.5379 6.26486 16.5061 6.43401C16.4702 6.56282 16.4025 6.68248 16.3081 6.78389C16.2136 6.88531 16.095 6.96579 15.9612 7.01923C15.8055 7.07301 15.6451 7.13032 15.4941 7.18552C14.8425 7.41833 14.1706 7.65893 13.47 7.77852C12.0165 8.03257 10.54 8.16287 9.05986 8.16771C7.27602 8.17037 5.49955 7.95958 3.77624 7.54075C3.40998 7.44246 3.05283 7.318 2.70815 7.16854C2.59994 7.12537 2.48862 7.08008 2.37885 7.03762C1.95925 6.8777 1.7654 6.5812 1.81445 6.18068ZM1.81445 9.06995C1.82501 8.98632 1.83021 8.9022 1.83002 8.81803C1.82916 8.73326 1.85032 8.64951 1.89179 8.57359C1.93326 8.49766 1.99386 8.43171 2.06866 8.38109C2.14347 8.33047 2.23036 8.29662 2.32227 8.28229C2.41419 8.26796 2.50852 8.27356 2.59761 8.29863C4.72337 8.89261 6.93402 9.19783 9.15795 9.2044C11.4031 9.19578 13.6348 8.88872 15.7821 8.29297C15.8379 8.27751 15.8959 8.26964 15.9542 8.26961C16.11 8.27085 16.2591 8.32703 16.3702 8.4263C16.4813 8.52558 16.5457 8.66019 16.5497 8.80175C16.5572 8.96076 16.5431 9.12 16.5077 9.27587C16.4485 9.50514 16.222 9.80518 15.9456 9.91274L15.7315 9.99341C15.0955 10.2347 14.4369 10.4838 13.7503 10.6105C12.2076 10.8991 10.6372 11.0475 9.06219 11.0534C7.2145 11.0561 5.37515 10.8283 3.59563 10.3762C3.24619 10.2777 2.90595 10.1539 2.57815 10.0061C2.5003 9.97359 2.42245 9.94034 2.3446 9.90849C1.94913 9.74291 1.76618 9.45419 1.81367 9.06995H1.81445ZM15.5509 12.9909C14.3528 13.4438 13.0372 13.7049 11.2848 13.8401C10.4853 13.9002 9.74259 13.9293 9.0147 13.9293C7.50328 13.9403 5.99565 13.79 4.52281 13.4813C3.95296 13.3596 3.40101 13.1636 2.86697 12.974C2.70582 12.9173 2.54 12.8586 2.37652 12.8027C1.96392 12.6612 1.76385 12.3562 1.81445 11.9415C1.82301 11.8708 1.8269 11.7894 1.82768 11.696C1.82871 11.5532 1.89183 11.4166 2.00326 11.316C2.11468 11.2153 2.26538 11.1589 2.42245 11.1589C2.48159 11.1587 2.5404 11.1669 2.59683 11.1829C4.72269 11.7778 6.93363 12.0838 9.15795 12.0908C11.3995 12.0833 13.6275 11.7733 15.7689 11.1709C15.8249 11.1552 15.8831 11.1471 15.9417 11.1468C16.0818 11.1485 16.217 11.1942 16.3242 11.2763C16.4314 11.3584 16.5039 11.4717 16.5295 11.5969C16.7179 12.4333 16.1052 12.7815 15.5501 12.9909H15.5509Z" fill="#2E2E2E"/>
</svg>