<svg width="18" height="16" viewBox="0 0 18 16" fill="none" xmlns="http://www.w3.org/2000/svg">
<path d="M0.614258 9.27832H0.615234C0.711509 9.27452 0.744019 9.30203 0.749023 9.30664C0.751121 9.3086 0.767468 9.32313 0.775391 9.36816L0.779297 9.42383C0.782911 10.3572 0.793038 11.2775 0.777344 12.1992C0.755618 13.4583 1.62188 14.5285 2.71973 15.0059L2.94238 15.0928C3.33864 15.2322 3.72953 15.2383 4.04688 15.2383H9.5V15.2363C10.9758 15.2353 12.4474 15.2303 13.9209 15.2383C14.5771 15.2417 15.1692 15.1031 15.6797 14.8047C16.1906 14.5059 16.5896 14.0637 16.8887 13.5078L16.8896 13.5088C17.107 13.1052 17.225 12.6627 17.2197 12.1885C17.2097 11.2819 17.2154 10.3762 17.2168 9.46289C17.217 9.34146 17.2492 9.30376 17.252 9.30078C17.2534 9.29922 17.2572 9.29546 17.2686 9.29102C17.2815 9.28603 17.3093 9.27821 17.3564 9.27832H17.3574C17.4098 9.27854 17.4392 9.28619 17.4521 9.29102C17.4581 9.29328 17.4612 9.29545 17.4619 9.2959L17.4629 9.29688C17.4634 9.29758 17.4647 9.29875 17.4658 9.30078C17.4681 9.30482 17.4715 9.31268 17.4756 9.3252C17.4839 9.35088 17.4932 9.39576 17.4932 9.46484L17.499 10.8857C17.5006 11.3558 17.4996 11.8236 17.4893 12.293C17.4622 13.5183 16.6371 14.7232 15.3779 15.2041C14.8498 15.4057 14.306 15.4999 13.7266 15.498C10.4726 15.4884 7.23875 15.5155 3.99512 15.4854C2.45186 15.471 1.1503 14.5897 0.665039 13.1875L0.579102 12.9004C0.544915 12.7664 0.523253 12.6228 0.513672 12.4766L0.507812 12.3301C0.502805 11.8456 0.500538 11.3609 0.5 10.876L0.50293 9.41895C0.503352 9.34339 0.514555 9.30763 0.520508 9.29492C0.530476 9.29006 0.557468 9.28062 0.614258 9.27832Z" fill="#8E8E8E" stroke="#8E8E8E"/>
<path d="M8.99316 0.5C9.00567 0.500697 9.03925 0.505953 9.10352 0.545898C9.1053 0.547016 9.10699 0.547883 9.1084 0.548828C9.10966 0.55746 9.11146 0.571789 9.11133 0.59375V0.594727C9.10557 1.71221 9.1084 2.83097 9.1084 3.94434V10.5312L9.73438 10.3682C10.077 10.279 10.2938 10.0018 10.2998 9.99609C11.2997 9.0493 12.2826 8.10857 13.2812 7.16504C13.3311 7.11795 13.3698 7.0942 13.3936 7.08301C13.4149 7.07304 13.4249 7.07229 13.4268 7.07227C13.428 7.07225 13.4362 7.07191 13.4541 7.08008C13.4639 7.08456 13.4769 7.09219 13.4932 7.10352L13.5508 7.15137C13.5588 7.15893 13.5631 7.1656 13.5664 7.16992C13.5603 7.18744 13.5415 7.23184 13.4746 7.2959H13.4736C12.0142 8.69438 10.5522 10.0912 9.08984 11.4863C9.05644 11.5182 9.03143 11.5335 9.0166 11.54C9.0027 11.5462 8.99533 11.5459 8.99316 11.5459C8.99057 11.5459 8.98262 11.5457 8.96777 11.5391C8.95134 11.5317 8.92399 11.5152 8.88867 11.4814C8.68969 11.2914 8.48955 11.0983 8.28809 10.9043L8.76855 10.1416C8.8657 9.98729 8.88969 9.8363 8.89258 9.72168C8.89387 9.66975 8.89136 9.62213 8.88965 9.5957C8.88752 9.56288 8.88672 9.55564 8.88672 9.5498V0.633789C8.88672 0.589775 8.88885 0.560304 8.8916 0.540039C8.89198 0.537298 8.89221 0.534396 8.89258 0.532227L8.89551 0.53125C8.95468 0.499368 8.98323 0.49947 8.99316 0.5ZM4.58789 7.08301H4.58887C4.66973 7.13551 4.7517 7.20363 4.83789 7.28516C5.80787 8.20411 6.77497 9.12346 7.74512 10.0439C7.75093 10.0495 7.75629 10.0558 7.77832 10.0791C7.79332 10.095 7.8176 10.1182 7.8457 10.1445V10.4785L6.64648 9.32715C6.06734 8.77589 5.46554 8.22408 4.89062 7.68359H4.88965C4.80494 7.60421 4.72241 7.52515 4.64258 7.44629L4.41211 7.20898C4.41105 7.20782 4.41062 7.20669 4.41016 7.20605L4.41699 7.18164C4.42271 7.1686 4.43348 7.15124 4.45215 7.13086C4.48903 7.09065 4.52333 7.0776 4.54297 7.07422C4.55942 7.07141 4.57263 7.07375 4.58789 7.08301Z" fill="#8E8E8E" stroke="#8E8E8E"/>
</svg>
