<svg xmlns="http://www.w3.org/2000/svg" width="17" height="17" viewBox="0 0 17 17" fill="none">
<path d="M3.15867 9.45011V6.41336C3.15867 4.97811 3.15199 3.54287 3.1657 2.10798C3.16779 1.87664 3.22084 1.6486 3.32107 1.44009C3.4891 1.10439 3.80899 0.959921 4.1781 0.958867C5.91113 0.956055 7.64523 0.957812 9.38072 0.956055C9.76459 0.956055 10.0321 1.1638 10.2849 1.42006C11.0494 2.19586 11.82 2.96673 12.587 3.74007C12.9864 4.14256 13.3744 4.55735 13.785 4.94788C14.0617 5.21082 14.1668 5.52613 14.1675 5.88924C14.1696 6.99652 14.1696 8.10368 14.1675 9.21073V9.45117C14.6554 9.45117 15.1226 9.45117 15.5898 9.45117C15.8671 9.45117 16.1171 9.52147 16.328 9.7148C16.5596 9.92571 16.6598 10.1908 16.6602 10.4945C16.6628 12.3045 16.6628 14.1145 16.6602 15.9244C16.6602 16.5311 16.2232 16.9561 15.6175 16.9561C10.9956 16.9561 6.37375 16.9561 1.75185 16.9561C1.07691 16.9561 0.662109 16.5402 0.662109 15.8639C0.662109 14.0829 0.662109 12.3019 0.662109 10.5208C0.662812 9.88459 1.08781 9.45398 1.72513 9.45046C2.19934 9.448 2.6732 9.45011 3.15867 9.45011ZM12.6619 10.4671H1.67521V15.9423H12.6619V10.4671ZM4.16826 9.93978H13.1505V5.95357H9.15399V1.97545H4.16826V9.93978ZM13.1674 15.937H15.6478V10.4702H13.1674V15.937ZM13.0718 5.44422L9.67917 2.05068V5.44422H13.0718Z" fill="#2E2E2E"/>
</svg>