<svg width="18" height="20" viewBox="0 0 18 20" fill="none" xmlns="http://www.w3.org/2000/svg">
<g clip-path="url(#clip0_1909_20527)">
<path d="M8.6591 0.750364C7.33343 0.865681 6.2014 1.36539 5.2779 2.23411C4.69699 2.77995 4.18311 3.67174 4.04905 4.34058C3.99692 4.62503 3.98202 4.8941 3.96713 5.87814L3.95223 6.87756L3.85541 6.93906C3.66178 7.04669 3.48304 7.30807 3.4309 7.55408C3.41601 7.62328 3.40856 7.78472 3.41601 7.96923L3.42346 8.27674L3.52772 8.59963C3.67667 9.04552 3.83307 9.45298 3.92244 9.64517C4.03416 9.86812 4.27248 10.1141 4.47356 10.2141C4.70444 10.3294 4.88318 10.3448 5.21087 10.2756C5.25556 10.2679 5.27045 10.2833 5.47154 10.7138C5.93329 11.6824 6.3429 12.3128 6.85679 12.851C7.40046 13.4199 7.94413 13.7351 8.61441 13.8812C8.78571 13.9196 8.86763 13.9273 9.20277 13.9273C9.53791 13.9273 9.61983 13.9196 9.79113 13.8812C11.0349 13.6044 11.9286 12.728 12.867 10.8445C13.0904 10.4063 13.2542 10.1141 13.3883 9.95268C13.5224 9.79124 13.6266 9.58367 13.716 9.29922C13.8128 9.00708 13.8426 8.82258 13.8277 8.46894C13.8203 8.22293 13.8128 8.16142 13.7756 8.08454C13.6862 7.87697 13.5224 7.73091 13.366 7.72322L13.2915 7.71553V7.63096C13.2915 7.58484 13.3064 7.42339 13.3213 7.27732C13.3734 6.83143 13.3883 6.5316 13.3883 5.97808C13.3883 5.26311 13.3585 5.02479 13.2245 4.55584C12.9638 3.64867 12.3084 2.90295 11.3775 2.434C9.67941 1.58065 7.43025 1.83435 6.11203 3.02596C5.72475 3.39497 5.40451 3.87931 5.21832 4.39439C4.99489 5.04017 4.93531 6.13953 5.06937 7.20045C5.12895 7.65403 5.1364 7.74628 5.10661 7.73091C5.08426 7.71553 5.05447 7.64634 4.94276 7.33883C4.8087 6.98519 4.75657 6.87756 4.64486 6.81605L4.55549 6.76993V6.07802C4.55549 4.85566 4.61507 4.44052 4.88318 3.90237C5.38217 2.8722 6.30566 2.04192 7.37811 1.64984C7.98882 1.42689 8.51015 1.33464 9.21022 1.33464C10.1188 1.33464 10.8934 1.51915 11.6232 1.91122C12.4797 2.37249 13.1202 3.04133 13.5522 3.9485C13.8128 4.49433 13.8203 4.53277 13.8575 5.94733C13.8724 6.54698 13.8947 7.07744 13.9022 7.12357C13.9394 7.28501 14.1033 7.36189 14.2597 7.30039C14.3565 7.26195 14.4012 7.19276 14.4235 7.08513C14.431 7.039 14.4384 6.43935 14.4384 5.74745V4.48664L14.3565 4.22526C14.2448 3.87162 14.1405 3.62561 13.999 3.37191C13.2245 1.93429 11.7573 0.996374 9.92518 0.773427C9.68686 0.742676 8.90487 0.734988 8.6591 0.750364ZM7.7207 4.99404C8.21224 5.43993 8.58462 5.70901 9.06127 5.95502C9.61239 6.23947 10.2007 6.43166 10.9232 6.57004C11.3402 6.64692 12.2041 6.73918 12.5542 6.73918C12.6584 6.73918 12.6882 6.74686 12.7031 6.76993C12.7329 6.84681 12.6287 7.61559 12.4797 8.41512C12.4499 8.58425 12.4276 8.73032 12.4276 8.73801C12.435 8.7457 12.4723 8.66113 12.5244 8.5535C12.6882 8.19217 12.8446 7.99229 12.9712 7.99229C13.0457 7.99229 13.1649 8.09223 13.217 8.19986C13.2542 8.27674 13.2617 8.33055 13.2691 8.49969C13.284 8.96864 13.15 9.33766 12.7702 9.82199C12.6808 9.93731 12.651 9.99881 12.2786 10.7907C11.7871 11.8439 11.3477 12.4589 10.8114 12.8587C10.5061 13.0893 10.0816 13.2661 9.75389 13.3123C9.56025 13.343 9.01658 13.343 8.73357 13.3123C8.28672 13.2661 7.86965 13.0816 7.47493 12.7587C7.27385 12.5896 7.05042 12.3513 6.90892 12.1668C6.72273 11.9208 6.3578 11.3057 6.37269 11.2827C6.38014 11.275 6.5142 11.3442 6.67804 11.4364C7.16958 11.7209 7.35577 11.7978 8.02605 11.9976C8.37609 12.1053 8.49525 12.1283 8.68889 12.1437C8.92721 12.1668 9.24746 12.1437 9.40385 12.0976C9.53046 12.0591 9.63473 11.9592 9.70921 11.8055C9.76879 11.6824 9.78368 11.644 9.78368 11.5364C9.78368 11.3903 9.70921 11.2212 9.59749 11.1059C9.48578 10.9905 9.39641 10.9752 8.91976 10.9598L8.51015 10.9521L8.40588 11.0059C8.30906 11.052 8.13032 11.2289 8.07819 11.3211C8.05584 11.3596 8.0484 11.3596 7.96647 11.3365C7.53451 11.2212 6.93126 10.8983 6.48441 10.5523C6.27587 10.3909 5.86626 9.99112 5.80668 9.89118C5.78434 9.86043 5.7471 9.7528 5.71731 9.65286C5.69496 9.55292 5.58325 9.19928 5.47898 8.8687C5.36727 8.53044 5.2779 8.22293 5.27045 8.1768C5.25556 8.09992 5.25556 8.09223 5.31514 8.04611C5.35238 8.01535 5.40451 7.99229 5.4343 7.99229C5.56836 7.99229 5.72475 8.19217 5.8886 8.5535C5.93329 8.66113 5.97797 8.73801 5.97797 8.73801C5.97797 8.73032 5.96308 8.62269 5.94073 8.48431C5.75454 7.47721 5.68007 6.70074 5.72475 6.33172C5.78433 5.88583 6.38014 5.13242 6.84189 4.90179C6.99084 4.8326 7.30364 4.71728 7.36322 4.71728C7.40046 4.71728 7.49728 4.79416 7.7207 4.99404Z" fill="#00A3DF"/>
<path d="M6.15674 13.9965C6.09716 14.0119 5.61307 14.1503 5.09174 14.2963C3.5352 14.7345 2.96918 14.9114 2.47019 15.1266C2.00844 15.3188 1.53925 15.6033 1.30092 15.8339C1.15197 15.98 1.02536 16.1645 0.913651 16.4335C0.690224 16.9486 0.571063 17.4791 0.51893 18.2248C0.504035 18.4631 0.466797 19.5548 0.466797 19.8393V19.9623H9.21025H17.9537V19.8393C17.9537 19.5548 17.9165 18.4631 17.8941 18.2171C17.8345 17.456 17.7303 16.9717 17.4994 16.4335C17.3207 16.0261 17.1717 15.8416 16.777 15.5725C16.1588 15.1497 15.5183 14.9114 13.3213 14.304C12.8745 14.181 12.4201 14.0503 12.3159 14.0196C12.2116 13.9888 12.1222 13.9658 12.1222 13.9658C12.1148 13.9734 12.1222 14.0119 12.1297 14.058C12.152 14.1733 12.1595 14.8037 12.1297 15.0574C12.0999 15.3419 12.0105 15.5956 11.7797 16.0876C11.4892 16.6949 11.1541 17.2946 10.8487 17.7405C10.4689 18.294 9.89542 18.8937 9.39643 19.2319L9.2028 19.3703L8.97192 19.2089C8.24206 18.6938 7.56433 17.8865 7.01321 16.8564C6.84937 16.5489 6.55146 15.9415 6.4472 15.6878C6.28335 15.3034 6.22377 14.8268 6.26101 14.2886C6.2759 14.1118 6.28335 13.9658 6.2759 13.9658C6.2759 13.9658 6.22377 13.9811 6.15674 13.9965Z" fill="#00A3DF"/>
<path d="M8.39875 14.7576C8.27958 14.8729 8.15298 15.0113 8.10829 15.0574L8.02637 15.1496L8.15298 15.3418C8.22745 15.4495 8.36896 15.6263 8.47322 15.7416L8.66686 15.9492L8.35406 16.7564C8.18277 17.2023 8.04126 17.5713 8.04871 17.579C8.04871 17.5867 8.10829 17.6712 8.17532 17.7712C8.33917 18.0095 8.57749 18.2632 8.92008 18.54L9.20308 18.7706L9.38183 18.6245C9.74676 18.3247 10.0298 18.0249 10.2606 17.7174L10.3724 17.5713L10.067 16.7795C9.89571 16.3413 9.76165 15.9722 9.76165 15.9569C9.76165 15.9415 9.83613 15.8492 9.9255 15.7493C10.1042 15.5417 10.3724 15.1881 10.3724 15.1573C10.3724 15.1112 10.1042 14.8114 9.9106 14.6499L9.79889 14.5577H9.20308H8.60728L8.39875 14.7576Z" fill="#00A3DF"/>
</g>
<defs>
<clipPath id="clip0_1909_20527">
<path d="M0.466797 9.48613C0.466797 4.65726 4.38137 0.742676 9.21025 0.742676C14.0391 0.742676 17.9537 4.65725 17.9537 9.48612V19.9622H0.466797V9.48613Z" fill="white"/>
</clipPath>
</defs>
</svg>
