<svg xmlns="http://www.w3.org/2000/svg" width="18" height="16" viewBox="0 0 18 16" fill="none">
  <path d="M9.43571 15.9693C7.81913 15.9693 6.20387 15.9693 4.58728 15.9693C3.76369 15.9693 2.9401 15.9693 2.11783 15.9693C1.73464 15.9693 0.609018 16.1913 0.907056 15.4455C1.22638 14.649 1.73198 13.8888 2.1338 13.1358C2.53029 12.3916 2.92679 11.6473 3.32329 10.9031C4.13358 9.38115 4.94387 7.85925 5.75548 6.3388C5.8912 6.0849 6.02691 5.70769 6.34358 5.71495C6.68419 5.7222 6.8678 6.20967 7.03412 6.46792C7.48117 7.16431 7.9269 7.8607 8.37263 8.55854C9.02591 9.58281 9.7404 11.363 11.1401 11.1192C11.84 10.9974 12.1566 10.4156 12.6782 9.97743C13.1944 9.54364 13.7413 9.75111 14.1311 10.2487C15.1649 11.5675 16.1322 12.9574 17.1328 14.3067C17.3829 14.6447 18.6243 15.92 17.6025 15.978C16.715 16.0288 15.8142 15.978 14.9255 15.978C13.096 15.978 11.2665 15.978 9.43704 15.978V15.9693H9.43571Z" fill="#8E8E8E"/>
  <path d="M14.1957 5.71293C13.323 5.67237 12.5512 5.28834 12.0163 4.42157C11.2422 3.16536 11.5018 1.52782 12.6017 0.609669C13.5045 -0.144868 14.7606 -0.204365 15.7175 0.460925C17.148 1.4548 17.3475 3.66297 16.1178 4.90701C15.5865 5.44384 14.9566 5.70076 14.1945 5.71429L14.1957 5.71293Z" fill="#8E8E8E"/>
</svg>