<svg width="20" height="17" viewBox="0 0 20 17" fill="none" xmlns="http://www.w3.org/2000/svg">
<g clip-path="url(#clip0_1909_20534)">
<path d="M4.29586 14.2681C3.25611 14.2681 2.69324 13.7023 2.69324 12.6504C2.69324 9.04048 2.69324 5.43056 2.69324 1.82063C2.69324 0.760767 3.24829 0.202942 4.29586 0.202942C8.98646 0.202942 13.6771 0.202942 18.3677 0.202942C19.3996 0.202942 19.9547 0.768735 19.9547 1.83657C19.9547 5.43853 19.9547 9.03251 19.9547 12.6345C19.9547 13.7103 19.3918 14.2681 18.3364 14.2761C15.9989 14.2761 13.6536 14.2761 11.3161 14.2761C8.97083 14.2681 6.63334 14.2681 4.29586 14.2681ZM18.3364 13.1206C18.7742 13.1206 18.8524 13.0488 18.8524 12.5867C18.8524 9.02454 18.8524 5.45446 18.8524 1.89235C18.8524 1.42219 18.7742 1.3425 18.3208 1.3425C13.6614 1.3425 9.00991 1.3425 4.35058 1.3425C3.87371 1.3425 3.80335 1.41422 3.80335 1.91626C3.80335 5.4704 3.80335 9.02454 3.80335 12.5787C3.80335 13.0488 3.87371 13.1206 4.34277 13.1206C6.68025 13.1206 9.01773 13.1206 11.363 13.1206C13.6771 13.1206 16.0067 13.1206 18.3364 13.1206Z" fill="#00A3DF"/>
<path d="M2.05906 16.3554C1.57436 16.3554 1.15221 16.196 0.862954 15.9011C0.5737 15.6063 0.432982 15.1919 0.440799 14.6819C0.464252 12.1956 0.464252 9.7013 0.456435 7.21499V4.24259C0.456435 4.09914 0.456435 3.97961 0.464252 3.85211C0.511158 3.15084 1.05058 2.63286 1.7698 2.59302L1.73853 2.80021C1.73853 3.04725 1.73853 3.28631 1.73853 3.53335C1.73853 3.58116 1.71508 3.63695 1.69944 3.64492C1.47273 3.77242 1.47273 3.97961 1.48055 4.17086V14.5862C1.48055 15.2477 1.51182 15.2875 2.15287 15.2875C2.15287 15.2875 12.7224 15.2875 15.3882 15.2795C15.4507 15.2795 15.5211 15.2875 15.5915 15.2875C15.6618 15.2955 15.7322 15.2955 15.8025 15.2955C15.9667 15.2955 16.17 15.2716 16.3341 15.0564H17.3739L17.3113 15.168C17.2957 15.2556 17.2801 15.3274 17.2566 15.3991C17.0612 15.9967 16.5452 16.3314 15.8416 16.3314H8.71972C6.4995 16.3314 4.27928 16.3314 2.05906 16.3474V16.3554Z" fill="#00A3DF"/>
<path d="M1.70819 2.63349V2.8088C1.70819 3.04787 1.70819 3.29491 1.70819 3.53398C1.70819 3.57382 1.69255 3.61367 1.68473 3.61367C1.44239 3.74914 1.4502 3.98024 1.4502 4.17149V4.24321V11.1363V14.5869C1.4502 15.2722 1.49711 15.32 2.15379 15.32H4.70235H7.25092C9.96365 15.32 12.6842 15.32 15.4047 15.312C15.4673 15.312 15.5377 15.32 15.6002 15.32C15.6706 15.328 15.7409 15.328 15.8113 15.328C15.9754 15.328 16.1943 15.2961 16.3585 15.0809C16.3585 15.0809 16.3663 15.0809 16.3741 15.0809C16.382 15.0809 16.3976 15.0809 16.4054 15.0809C16.421 15.0809 16.4289 15.0809 16.4367 15.0809C16.6165 15.0809 16.7963 15.0809 16.9839 15.0809H17.1715H17.3044C17.2966 15.1049 17.2966 15.1288 17.2888 15.1606C17.2732 15.2483 17.2575 15.32 17.2419 15.3917C17.0465 15.9735 16.5461 16.3082 15.8582 16.3082H15.3188C14.2165 16.3082 13.1142 16.3082 12.0197 16.3082C10.9252 16.3082 9.81511 16.3082 8.72064 16.3082C6.03918 16.3082 3.99876 16.3161 2.0678 16.3241C1.59092 16.3241 1.17658 16.1647 0.895148 15.8778C0.613712 15.591 0.472994 15.1845 0.480812 14.6825C0.504265 12.1962 0.504265 9.67005 0.496447 7.22359C0.496447 6.23544 0.496447 5.23933 0.496447 4.23524C0.496447 4.11571 0.496447 3.9882 0.504265 3.86867C0.543353 3.19131 1.03587 2.69724 1.70819 2.63349ZM1.77073 2.56177C1.02023 2.60161 0.480812 3.12756 0.433905 3.85273C0.426088 3.98024 0.426088 4.11571 0.426088 4.24321C0.426088 7.72563 0.449541 11.2001 0.410452 14.6825C0.394817 15.8539 1.16095 16.3879 2.05998 16.3879C2.0678 16.3879 2.0678 16.3879 2.07562 16.3879C4.28802 16.3719 6.50042 16.3719 8.71282 16.3719C10.9174 16.3719 13.1142 16.3719 15.3188 16.3719C15.4986 16.3719 15.6784 16.3719 15.8582 16.3719C16.5696 16.3719 17.1012 16.0213 17.3044 15.4156C17.3435 15.3041 17.3513 15.1845 17.3826 15.0252C17.2419 15.0252 17.109 15.0252 16.9839 15.0252C16.7963 15.0252 16.6165 15.0252 16.4367 15.0252C16.4132 15.0252 16.3898 15.0252 16.3663 15.0252C16.3429 15.0252 16.3194 15.0252 16.3116 15.0411C16.1709 15.2324 15.9911 15.2722 15.8035 15.2722C15.6706 15.2722 15.5298 15.2483 15.3969 15.2483C12.6842 15.2483 9.96365 15.2563 7.25092 15.2563C5.55448 15.2563 3.85805 15.2563 2.16161 15.2563C1.54402 15.2563 1.52056 15.2324 1.52056 14.5948C1.52056 11.1443 1.52056 7.70172 1.52056 4.25118C1.52056 4.03602 1.48929 3.81289 1.72382 3.67742C1.75509 3.66148 1.77855 3.58976 1.77855 3.54195C1.77073 3.20725 1.77073 2.88849 1.77073 2.56177Z" fill="white"/>
<path d="M8.75151 3.98816C8.07919 4.67349 7.47723 5.29506 6.86745 5.91664C6.30458 6.4904 5.73389 7.06416 5.17883 7.6459C5.09284 7.73355 5.00684 7.87699 5.00684 7.99653C4.99121 9.23968 4.99902 10.4908 4.99902 11.734C4.99902 11.7818 5.01466 11.8376 5.02248 11.9013C9.22057 11.9013 13.403 11.9013 17.6324 11.9013C17.6324 11.3275 17.6324 10.7617 17.6246 10.196C17.6246 10.1481 17.562 10.0844 17.5151 10.0445C16.6161 9.12015 15.7171 8.20372 14.7867 7.24745C14.3177 7.75746 13.8643 8.25153 13.3874 8.76155C11.816 7.14385 10.2994 5.58194 8.75151 3.98816Z" fill="#00A3DF"/>
<path d="M14.2325 4.28303C14.2247 5.27118 14.9673 6.03619 15.9367 6.03619C16.8905 6.03619 17.6332 5.28711 17.6332 4.30694C17.641 3.31082 16.8983 2.55377 15.9289 2.55377C14.9752 2.56174 14.2403 3.31082 14.2325 4.28303Z" fill="#00A3DF"/>
<path d="M4.15466 13.4712C3.67778 13.4712 3.60742 13.3995 3.60742 12.8974C3.60742 9.12813 3.60742 5.35883 3.60742 1.58952C3.60742 1.06358 3.67778 0.983887 4.17029 0.983887C8.94689 0.983887 13.7235 0.983887 18.5001 0.983887C18.9691 0.983887 19.0473 1.06358 19.0473 1.56562C19.0473 5.34289 19.0473 9.12813 19.0473 12.9054C19.0473 13.3915 18.9691 13.4712 18.5235 13.4712C16.1391 13.4712 13.7469 13.4712 11.3626 13.4712C8.94689 13.4712 6.54687 13.4712 4.15466 13.4712ZM7.02374 5.96446C6.48432 6.52229 5.92927 7.06418 5.39767 7.62997C5.31167 7.71763 5.2335 7.8531 5.22568 7.97263C5.21004 9.17594 5.21786 10.3792 5.21786 11.5746C5.21786 11.6224 5.2335 11.6702 5.24131 11.7419C9.29087 11.7419 13.3248 11.7419 17.3978 11.7419C17.3978 11.1921 17.3978 10.6422 17.39 10.0924C17.39 10.0446 17.3274 9.98877 17.2883 9.94096C16.4206 9.04844 15.5528 8.16389 14.6616 7.24746C14.2082 7.74153 13.7704 8.2117 13.317 8.70577C11.8003 7.14387 10.3384 5.63774 8.84526 4.09974C8.19639 4.76913 7.61007 5.36679 7.02374 5.96446ZM15.7795 6.084C16.702 6.084 17.4134 5.35883 17.4212 4.41849C17.4291 3.46222 16.7098 2.72908 15.7795 2.72908C14.8571 2.72908 14.1456 3.45425 14.1378 4.39459C14.1222 5.34289 14.8414 6.084 15.7795 6.084Z" fill="white"/>
</g>
<defs>
<clipPath id="clip0_1909_20534">
<rect width="19.5442" height="16.1849" fill="white" transform="translate(0.410156 0.202942)"/>
</clipPath>
</defs>
</svg>
