<svg xmlns="http://www.w3.org/2000/svg" width="17" height="17" viewBox="0 0 17 17" fill="none">
<path d="M10.5372 9.67369C10.5129 9.70097 10.4804 9.74251 10.443 9.77835C9.26325 10.9003 8.1944 12.1309 7.25093 13.4537C7.1435 13.6032 7.06365 13.6089 6.91259 13.525C6.32892 13.1992 5.90208 12.719 5.502 12.2027C3.79299 9.99867 2.01977 7.84924 0.0893195 5.82973C0.0456888 5.78289 0.0284011 5.71407 0 5.65461C0.653109 4.2369 1.57985 2.95907 2.72815 1.89291L10.5372 9.67369Z" fill="#8E8E8E"/>
<path d="M13.5831 7.23836L11.5881 8.71868C11.5514 8.68488 11.516 8.65474 11.4831 8.62216C9.32159 6.48496 7.16064 4.34748 5.00023 2.20973C4.62443 1.83791 4.25481 1.45999 3.87695 1.09022C3.84595 1.06275 3.8099 1.04146 3.77075 1.0275C4.29227 0.641245 4.84469 0.29762 5.42255 3.05176e-05C5.45547 0.0354606 5.48552 0.0708907 5.52051 0.101841C6.42111 0.903701 7.2962 1.73325 8.22561 2.50009C9.62509 3.65503 11.0612 4.76762 12.4841 5.89568C12.9525 6.26667 13.3325 6.70405 13.5831 7.23836Z" fill="#8E8E8E"/>
<path d="M16.6404 16.7983C16.4715 16.9337 16.2594 17.0052 16.042 17C15.8247 16.9949 15.6163 16.9134 15.4541 16.7702C15.2158 16.5564 15.0034 16.3145 14.7544 16.0612C15.1101 15.5523 15.5574 15.1126 16.074 14.7641C16.344 15.0598 16.6449 15.3298 16.8701 15.6519C17.1212 16.0094 16.9886 16.523 16.6404 16.7983Z" fill="#8E8E8E"/>
<path d="M15.4288 13.3678C14.7245 14.054 14.0293 14.75 13.3295 15.4374C13.2752 15.4903 13.1649 15.5425 13.1015 15.5233C11.6004 15.0599 10.1025 14.5867 8.60425 14.1143C8.57228 14.1006 8.54121 14.085 8.51123 14.0674C10.0716 11.9603 11.8671 10.1241 14.042 8.62015C14.0861 8.74232 14.1244 8.84332 14.1598 8.94594C14.6043 10.327 15.049 11.708 15.4938 13.0888C15.5284 13.2024 15.523 13.2761 15.4288 13.3678Z" fill="#8E8E8E"/>
</svg>