<svg xmlns="http://www.w3.org/2000/svg" width="17" height="13" viewBox="0 0 17 13" fill="none">
  <path d="M10.1635 11.0708C10.1635 10.7498 10.1635 10.4286 10.1635 10.1074C10.1618 10.0766 10.1625 10.0457 10.1656 10.015C10.1789 9.9323 10.2343 9.90115 10.3074 9.94167C10.4269 10.0077 10.5475 10.0719 10.6698 10.1329C11.1807 10.3871 11.7264 10.5276 12.2851 10.6234C12.7009 10.6947 13.1202 10.7079 13.5406 10.6762C13.7348 10.6639 13.9256 10.6198 14.1055 10.5458C14.3109 10.459 14.4257 10.3042 14.4566 10.087C14.4708 9.98772 14.4433 9.89548 14.3929 9.80983C14.3223 9.6896 14.2228 9.59709 14.108 9.51949C13.8536 9.34859 13.5691 9.23866 13.2881 9.12279C12.9661 8.99082 12.6339 8.8834 12.3203 8.72952C11.9032 8.52549 11.4919 8.30999 11.1379 8.00764C10.6798 7.61688 10.3417 7.14377 10.2355 6.54145C10.0817 5.67045 10.2718 4.88245 10.8609 4.20663C11.2988 3.70515 11.8653 3.41033 12.5013 3.24233C13.1141 3.08053 13.7406 3.06483 14.3702 3.0961C14.7363 3.11335 15.1012 3.14983 15.4635 3.20538C15.7601 3.25265 16.0507 3.33154 16.3304 3.44068C16.4733 3.49571 16.51 3.54454 16.5107 3.69578C16.5123 4.03454 16.5107 4.37318 16.5107 4.71195C16.5107 4.98909 16.5107 5.26622 16.5107 5.54336C16.5107 5.73591 16.4092 5.79846 16.2275 5.71717C16.1149 5.66675 16.0046 5.61067 15.8906 5.56342C15.4842 5.39489 15.057 5.30621 14.6235 5.2422C14.242 5.18599 13.8592 5.1617 13.474 5.1906C13.3198 5.20376 13.1677 5.23413 13.0204 5.28114C12.6446 5.39687 12.4858 5.86722 12.8062 6.18025C12.9305 6.2994 13.073 6.39816 13.2285 6.47283C13.5717 6.64423 13.9245 6.79581 14.2853 6.92681C14.8256 7.12159 15.3415 7.37763 15.8228 7.68986C16.3005 7.99946 16.6682 8.40659 16.8593 8.95255C16.9863 9.31507 17.0171 9.68749 16.992 10.0693C16.9643 10.499 16.844 10.8983 16.6243 11.2669C16.3123 11.7903 15.8647 12.1643 15.3093 12.4111C14.8041 12.6354 14.2717 12.75 13.7212 12.7949C12.8552 12.8653 12.0002 12.7967 11.1555 12.601C10.8717 12.5336 10.5955 12.4377 10.3312 12.3146C10.2151 12.2618 10.1587 12.1808 10.161 12.0469C10.168 11.7219 10.1635 11.3964 10.1635 11.0708Z" fill="#8E8E8E"/>
  <path d="M8.67205 2.96111C8.473 2.37187 8.15228 1.85824 7.69315 1.43237C7.21903 0.992908 6.66569 0.694127 6.05396 0.492872C5.38849 0.273934 4.70152 0.197655 4.0058 0.182346C3.38677 0.169149 2.76788 0.189209 2.14912 0.203198C1.51311 0.21745 0.87617 0.236586 0.240159 0.250443C0.00369527 0.25559 0.000377872 0.254138 0.000377872 0.48535V12.2815C0.000377872 12.3256 -0.00081639 12.3695 0.00104135 12.4135C0.00621649 12.5385 0.0431059 12.5741 0.171821 12.58C0.193981 12.5811 0.216141 12.58 0.238169 12.58H2.32149C2.35246 12.5814 2.38348 12.5808 2.41438 12.5783C2.50103 12.5675 2.54588 12.5184 2.55132 12.4301C2.55344 12.395 2.55132 12.3598 2.55132 12.3245C2.55132 11.1896 2.55172 10.0546 2.55252 8.9197C2.55252 8.83392 2.51072 8.72175 2.57494 8.66896C2.63558 8.61828 2.74492 8.65101 2.83237 8.65576C3.61063 8.69535 4.38703 8.69285 5.15919 8.56972C5.68905 8.48513 6.20497 8.35157 6.68771 8.11363C7.48389 7.72115 8.10132 7.14286 8.4941 6.34325C8.71332 5.89679 8.82332 5.41946 8.87056 4.92575C8.93505 4.2568 8.88874 3.60051 8.67205 2.96111ZM6.26959 5.02117C6.1767 5.44083 5.92233 5.74239 5.57957 5.98455C5.30303 6.17921 4.98735 6.27396 4.66397 6.3509C4.31972 6.43187 3.96673 6.47029 3.61302 6.46532C3.31684 6.46215 3.02067 6.47113 2.72396 6.45503C2.5691 6.44658 2.56884 6.44935 2.56884 6.28874C2.56884 5.68168 2.56884 5.07462 2.56884 4.46755C2.56884 3.86929 2.56884 3.27102 2.56884 2.67276C2.56884 2.64201 2.57096 2.611 2.56884 2.58038C2.56379 2.51624 2.59538 2.4979 2.65562 2.4975C2.94291 2.49579 3.23019 2.48971 3.51748 2.48774C3.77823 2.48576 4.0395 2.47454 4.29959 2.49856C4.67591 2.533 5.04069 2.61522 5.38132 2.78308C5.92259 3.0498 6.21956 3.49572 6.31311 4.07864C6.3638 4.39405 6.33872 4.70932 6.26959 5.02117Z" fill="#8E8E8E"/>
</svg>