<svg xmlns="http://www.w3.org/2000/svg" width="18" height="17" viewBox="0 0 18 17" fill="none">
<path d="M0.078125 4.04433C0.134399 3.82459 0.175575 3.59927 0.248778 3.38556C0.65322 2.20507 1.78053 1.37673 3.00896 1.36279C3.90157 1.35303 4.79326 1.35954 5.68679 1.36047C5.89908 1.36047 6.03999 1.47057 6.0711 1.64897C6.10359 1.8348 6.01117 1.95605 5.80529 2.04479C5.36516 2.23527 4.93235 2.44154 4.49222 2.63109C4.37428 2.68312 4.24819 2.71347 4.1198 2.72075C3.80366 2.73283 3.4866 2.73701 3.17092 2.72075C2.20236 2.67429 1.41086 3.4729 1.41452 4.46896C1.42459 7.36669 1.42459 10.2643 1.41452 13.1617C1.41178 14.0379 1.99785 14.7064 2.69556 14.8648C2.84949 14.9 3.00674 14.9179 3.16452 14.9182C6.0011 14.9213 8.83769 14.9213 11.6743 14.9182C12.5298 14.9182 13.163 14.4304 13.3771 13.6067C13.4148 13.4392 13.4323 13.2676 13.4293 13.0957C13.4348 12.4132 13.4366 11.7303 13.4293 11.0474C13.4293 10.8388 13.5039 10.7073 13.6809 10.6037C13.8635 10.4908 14.039 10.3667 14.2066 10.232C14.3215 10.1438 14.4354 10.1159 14.5681 10.1814C14.6285 10.2066 14.68 10.25 14.7154 10.3057C14.7509 10.3614 14.7688 10.4268 14.7666 10.4931C14.7625 11.5087 14.7904 12.5257 14.7483 13.5394C14.6948 14.8272 13.5386 16.0606 12.2841 16.2288C12.0718 16.2582 11.8579 16.2737 11.6436 16.2753C8.82991 16.2781 6.0162 16.2716 3.20295 16.2799C1.99465 16.2832 1.08969 15.7587 0.462894 14.7236C0.274186 14.4096 0.154341 14.058 0.111524 13.6927C0.103686 13.6541 0.0925096 13.6164 0.078125 13.5798L0.078125 4.04433Z" fill="#00A3DF"/>
<path d="M12.0878 6.79808C12.0232 6.79483 11.9793 6.79019 11.9354 6.79065C11.0831 6.80319 10.2298 6.79948 9.3779 6.83432C8.58716 6.86192 7.80706 7.02805 7.07203 7.32538C5.98909 7.76952 5.37053 8.60065 5.12805 9.7463C4.91394 10.7572 4.93086 11.7723 5.04982 12.7911C5.06309 12.905 5.07452 13.0188 5.08688 13.1326C5.10884 13.3342 5.03426 13.4792 4.87825 13.5391C4.71309 13.6023 4.56302 13.5582 4.45459 13.3867C4.25969 13.0783 4.07028 12.7661 3.89093 12.4483C3.4142 11.6041 3.04819 10.7149 2.84872 9.75838C2.70826 9.08799 2.73068 8.4111 2.79748 7.73793C2.87022 7.00482 3.03447 6.29448 3.38309 5.63757C3.75859 4.92626 4.31462 4.32988 4.99354 3.91027C5.94334 3.31328 6.99013 3.02757 8.08314 2.87194C9.3294 2.694 10.583 2.70887 11.8348 2.70701C11.9025 2.70701 11.972 2.70701 12.0374 2.70236C12.0475 2.70236 12.0571 2.69354 12.0859 2.6796C12.0859 2.55277 12.0859 2.41665 12.0859 2.28053C12.0919 1.71328 12.0928 1.14556 12.1088 0.578314C12.1184 0.307 12.2904 0.14161 12.5279 0.0486948C12.6384 0.00222709 12.7596 -0.0113523 12.8774 0.00954356C12.9952 0.0304394 13.1047 0.0849474 13.1931 0.166698C13.2361 0.203864 13.2759 0.244747 13.3157 0.28563L17.1506 4.18344C17.5413 4.58019 17.54 4.92305 17.1469 5.32258C15.8568 6.63316 14.5615 7.93816 13.2796 9.2571C12.952 9.59484 12.4771 9.53817 12.2365 9.24641C12.1079 9.09031 12.09 8.90262 12.0891 8.71308C12.0859 8.08032 12.0878 7.44989 12.0878 6.79808Z" fill="#00A3DF"/>
</svg>