<svg xmlns="http://www.w3.org/2000/svg" width="15" height="16" viewBox="0 0 15 16" fill="none">
<g clip-path="url(#clip0_1909_20576)">
<path d="M0 4.29453C0 3.62586 0 2.93911 0 2.27044C0 1.47526 0.542823 0.915015 1.33896 0.915015C2.67793 0.915015 4.03498 0.896942 5.37394 0.915015C6.20627 0.933087 6.96622 1.22224 7.54524 1.81863C9.91556 4.14995 12.2497 6.51743 14.6019 8.86682C15.1086 9.37285 15.1086 10.1861 14.6019 10.6921C13.0096 12.3006 11.3993 13.9271 9.77081 15.5174C9.24608 16.0596 8.46803 16.0415 7.9433 15.5174C5.64536 13.2042 3.32931 10.8909 1.01327 8.57767C0.343788 7.90899 0 7.09574 0 6.13791C0 5.52345 0 4.90899 0 4.29453ZM1.89988 4.05959C1.89988 4.81863 2.47889 5.34273 3.29312 5.3608C3.87213 5.3608 4.43305 4.72827 4.43305 4.04152C4.43305 3.39092 3.87213 2.83068 3.22075 2.84875C2.47889 2.84875 1.89988 3.37285 1.89988 4.05959Z" fill="#8E8E8E"/>
</g>
<defs>
<clipPath id="clip0_1909_20576">
<rect width="15" height="15" fill="white" transform="translate(0 0.915039)"/>
</clipPath>
</defs>
</svg>