<svg xmlns="http://www.w3.org/2000/svg" width="16" height="15" viewBox="0 0 16 15" fill="none">
<path d="M14.7007 2.65995C13.8201 1.53808 12.6501 0.966023 11.2183 0.956055H11.1871C10.1932 0.956055 9.28741 1.28157 8.49487 1.92379C8.37999 2.01735 8.27432 2.1155 8.16464 2.21711C7.11992 1.20681 5.86987 0.800771 4.44729 1.0105C3.1368 1.20221 2.10409 1.8843 1.37759 3.03301C0.663103 4.1637 0.482579 5.46118 0.841224 6.8894C1.18946 8.27429 1.95199 9.5641 3.17282 10.8324C4.46611 12.1744 6.00516 13.3246 7.87764 14.3418C7.96527 14.3928 8.06534 14.4208 8.16784 14.4231C8.26849 14.4212 8.36683 14.3939 8.45284 14.3437C10.6143 13.1609 12.3139 11.8282 13.6468 10.2688C14.7235 9.00968 15.3588 7.71949 15.5885 6.32539C15.8155 4.9382 15.5169 3.70514 14.7007 2.65995ZM14.17 6.02058C14.0235 7.09107 13.5631 8.1029 12.7622 9.11397C11.8656 10.2458 10.6904 11.2783 9.17013 12.2706C8.96999 12.4002 8.76185 12.526 8.55891 12.6475C8.42962 12.7242 8.29673 12.8051 8.16544 12.8864C6.60837 11.99 5.34551 11.0291 4.3056 9.95058C3.37256 8.98284 2.78455 8.09715 2.45433 7.16354C2.25179 6.59187 2.05686 5.9113 2.14332 5.19969C2.30663 3.85122 2.96908 2.97588 4.1675 2.51962C4.4684 2.40271 4.78984 2.34193 5.11455 2.34056C5.6245 2.34056 6.13525 2.49393 6.6416 2.80335C6.99744 3.01998 7.27363 3.32402 7.56583 3.64686C7.64588 3.73696 7.73274 3.83013 7.8188 3.92138C7.84682 3.95091 7.87444 3.98081 7.90486 4.01379L8.16224 4.29138L8.37198 4.06938C8.46405 3.97251 8.55437 3.87601 8.64297 3.7799C8.8339 3.57439 9.01442 3.38077 9.20335 3.19175C9.4778 2.91469 9.81075 2.69686 10.18 2.55278C10.5493 2.40871 10.9464 2.34169 11.3448 2.3562C11.7432 2.37071 12.1339 2.46642 12.4906 2.63695C12.8474 2.80747 13.1621 3.04889 13.4138 3.34511C14.0643 4.0943 14.3116 4.9704 14.168 6.02058H14.17Z" fill="#2E2E2E"/>
</svg>