<svg xmlns="http://www.w3.org/2000/svg" width="24" height="24" viewBox="0 0 24 24" fill="none">
<path d="M6 2.25C3.92893 2.25 2.25 3.92893 2.25 6C2.25 8.07107 3.92893 9.75 6 9.75C8.07107 9.75 9.75 8.07107 9.75 6C9.75 3.92893 8.07107 2.25 6 2.25Z" fill="#2E2E2E"/>
<path d="M6 14.25C3.92893 14.25 2.25 15.9289 2.25 18C2.25 20.0711 3.92893 21.75 6 21.75C8.07107 21.75 9.75 20.0711 9.75 18C9.75 15.9289 8.07107 14.25 6 14.25Z" fill="#2E2E2E"/>
<path d="M18 2.25C15.9289 2.25 14.25 3.92893 14.25 6C14.25 8.07107 15.9289 9.75 18 9.75C20.0711 9.75 21.75 8.07107 21.75 6C21.75 3.92893 20.0711 2.25 18 2.25Z" fill="#2E2E2E"/>
<path d="M18 14.25C15.9289 14.25 14.25 15.9289 14.25 18C14.25 20.0711 15.9289 21.75 18 21.75C20.0711 21.75 21.75 20.0711 21.75 18C21.75 15.9289 20.0711 14.25 18 14.25Z" fill="#2E2E2E"/>
</svg>