<svg xmlns="http://www.w3.org/2000/svg" width="13" height="14" viewBox="0 0 13 14" fill="none">
<path d="M6.30211 13.5238C9.78267 13.5238 12.6042 10.7032 12.6042 7.22383C12.6042 3.74443 9.78267 0.923828 6.30211 0.923828C2.82155 0.923828 0 3.74443 0 7.22383C0 10.7032 2.82155 13.5238 6.30211 13.5238Z" fill="#FF8686"/>
<path d="M4.51855 3.28796C4.78334 3.28796 5.03049 3.28796 5.31293 3.28796C5.34824 3.9762 5.38354 4.64679 5.41885 5.31738C5.45416 5.86444 5.48946 6.42914 5.48946 6.9762C5.48946 7.20561 5.56007 7.39973 5.71895 7.5762C6.58395 8.59973 7.43129 9.62326 8.31393 10.6644C8.11975 10.8409 7.92557 10.9997 7.73139 11.1586C7.02527 10.4703 6.3368 9.79973 5.64834 9.1115C5.24232 8.70562 4.8363 8.29973 4.43029 7.8762C4.35967 7.80561 4.28906 7.68209 4.28906 7.5762C4.34202 6.18208 4.41263 4.78797 4.48324 3.39385C4.48324 3.35855 4.5009 3.32326 4.51855 3.28796Z" fill="white"/>
</svg>