<svg xmlns="http://www.w3.org/2000/svg" width="11" height="11" viewBox="0 0 11 11" fill="none">
  <path d="M5.42083 11C8.41467 11 10.8417 8.53757 10.8417 5.5C10.8417 2.46243 8.41467 0 5.42083 0C2.42699 0 0 2.46243 0 5.5C0 8.53757 2.42699 11 5.42083 11Z" fill="#00A9E8"/>
  <path d="M3.88685 2.06445C4.11462 2.06445 4.3272 2.06445 4.57015 2.06445C4.60052 2.66529 4.63089 3.25073 4.66125 3.83616C4.69162 4.31375 4.72199 4.80675 4.72199 5.28434C4.72199 5.48462 4.78273 5.65409 4.91939 5.80815C5.66342 6.70171 6.39227 7.59527 7.15149 8.50423C6.98447 8.65829 6.81744 8.79695 6.65041 8.9356C6.04303 8.33476 5.45084 7.74933 4.85865 7.14849C4.50941 6.79414 4.16017 6.4398 3.81093 6.07006C3.75019 6.00843 3.68945 5.90059 3.68945 5.80815C3.73501 4.59106 3.79574 3.37398 3.85648 2.15689C3.85648 2.12608 3.87167 2.09527 3.88685 2.06445Z" fill="white"/>
</svg>