<svg xmlns="http://www.w3.org/2000/svg" width="19" height="10" viewBox="0 0 19 10" fill="none">
  <g clip-path="url(#clip0_1909_21668)">
    <path d="M9.73737 0C13.0822 0.037594 16.2092 1.46617 18.7624 4.43609C19.079 4.81203 19.079 5.18797 18.7624 5.56391C16.902 7.70677 14.6853 9.11654 12.0728 9.69925C8.74779 10.4135 5.6207 9.84962 2.73112 7.83835C1.80091 7.19925 0.969662 6.42857 0.217578 5.52632C-0.0595052 5.18797 -0.0595052 4.79323 0.217578 4.45489C2.11758 2.21804 4.41341 0.808271 7.12487 0.225564C7.87695 0.075188 8.64883 0 9.73737 0Z" fill="#FF8686"/>
    <path d="M13.0023 4.99998C13.0023 3.15788 11.4388 1.67291 9.49922 1.67291C7.57943 1.67291 5.99609 3.17667 5.99609 4.99998C5.99609 6.82329 7.57943 8.30825 9.49922 8.30825C11.419 8.32705 13.0023 6.82329 13.0023 4.99998Z" fill="white"/>
    <path d="M10.113 3.12029C9.69733 3.40224 9.49941 3.75938 9.63795 4.22931C9.73691 4.58645 9.9942 4.81202 10.39 4.8872C10.865 4.96239 11.2015 4.79322 11.4588 4.41728C11.7952 4.96239 11.4588 6.01502 10.8057 6.52254C10.014 7.12405 8.86608 7.10525 8.11399 6.46615C7.36191 5.82705 7.20358 4.75563 7.73795 3.94735C8.35149 3.0451 9.45983 2.89472 10.113 3.12029Z" fill="#FF8686"/>
  </g>
  <defs>
    <clipPath id="clip0_1909_21668">
      <rect width="19" height="10" fill="white"/>
    </clipPath>
  </defs>
</svg>