<svg xmlns="http://www.w3.org/2000/svg" width="17" height="10" viewBox="0 0 17 10" fill="none">
  <g clip-path="url(#clip0_1909_21272)">
    <path d="M8.58617 0.457031C11.5358 0.490866 14.2934 1.77658 16.5449 4.44951C16.8242 4.78786 16.8242 5.1262 16.5449 5.46455C14.9043 7.39312 12.9495 8.66192 10.6457 9.18635C7.7135 9.82921 4.95586 9.32169 2.40766 7.51154C1.58735 6.93635 0.854303 6.24274 0.191073 5.43072C-0.0532745 5.1262 -0.0532745 4.77094 0.191073 4.46643C1.8666 2.45327 3.8912 1.18447 6.28232 0.660039C6.94555 0.5247 7.62623 0.457031 8.58617 0.457031Z" fill="#00A9E8"/>
    <path d="M11.4656 4.95704C11.4656 3.29914 10.0868 1.96268 8.37636 1.96268C6.68338 1.96268 5.28711 3.31606 5.28711 4.95704C5.28711 6.59802 6.68338 7.93448 8.37636 7.93448C10.0693 7.9514 11.4656 6.59802 11.4656 4.95704Z" fill="white"/>
    <path d="M8.91769 3.2653C8.55117 3.51906 8.37664 3.84049 8.49881 4.26342C8.58608 4.58485 8.81297 4.78786 9.16204 4.85553C9.58092 4.9232 9.87763 4.77094 10.1045 4.43259C10.4012 4.9232 10.1045 5.87056 9.52856 6.32733C8.83043 6.86869 7.81813 6.85177 7.1549 6.27658C6.49167 5.70139 6.35204 4.73711 6.82328 4.00966C7.36434 3.19763 8.34173 3.06229 8.91769 3.2653Z" fill="#00A9E8"/>
  </g>
  <defs>
    <clipPath id="clip0_1909_21272">
      <rect width="16.7553" height="9" fill="white" transform="translate(-0.000976562 0.457031)"/>
    </clipPath>
  </defs>
</svg>