<svg width="48" height="49" viewBox="0 0 48 49" fill="none" xmlns="http://www.w3.org/2000/svg">
<path d="M24.0837 0C24.5143 0.0318604 24.9449 0.069031 25.3761 0.0939883C28.1726 0.257008 30.9331 0.65898 33.6404 1.38699C36.2569 2.09058 38.77 3.04533 41.0308 4.57304C42.1139 5.30529 43.1015 6.14535 43.8539 7.23338C44.6291 8.35487 45.0315 9.57672 45.0177 10.9616C44.9853 14.2267 45.0055 17.493 45.0039 20.7587V21.0741C44.9089 21.012 44.8446 20.9748 44.7878 20.9318C43.9521 20.3238 43.1206 19.7105 42.278 19.1104C42.1187 18.9963 42.0406 18.8885 42.0428 18.6856C42.0513 17.8626 42.0428 17.0395 42.038 16.2164V15.8543C41.6132 16.1517 41.25 16.4272 40.8656 16.672C40.3878 16.9758 39.8998 17.2604 39.4066 17.5376C39.3002 17.5943 39.1764 17.6087 39.0599 17.5779C37.6364 17.0745 36.1709 16.7634 34.6529 16.5642C34.7405 16.5292 34.8271 16.4899 34.9184 16.458C36.1226 16.0412 37.3151 15.5952 38.4328 14.9765C39.4915 14.3924 40.4791 13.708 41.2272 12.7336C42.3449 11.277 42.2992 9.64628 41.1088 8.24601C40.2322 7.21427 39.123 6.49369 37.9273 5.90215C35.7239 4.80986 33.3749 4.16735 30.9718 3.71705C26.9355 2.96355 22.8705 2.80637 18.7864 3.10374C15.6633 3.33101 12.596 3.86414 9.61837 4.85128C7.8179 5.44814 6.11406 6.24252 4.66721 7.49464C4.25974 7.84746 3.89865 8.25052 3.59256 8.69418C2.74621 9.92984 2.76798 11.2467 3.60371 12.4893C4.30404 13.5295 5.28843 14.2469 6.35671 14.8549C8.12161 15.8596 10.0304 16.492 11.9917 16.9853C13.977 17.4839 15.992 17.7994 18.0271 17.9858C20.4005 18.2035 22.7786 18.2279 25.1589 18.1206C25.3246 18.1132 25.4902 18.1206 25.743 18.1206C25.4812 18.2502 25.2874 18.3421 25.0968 18.4392C23.7632 19.1178 22.5163 19.9549 21.3833 20.9323C21.2439 21.0491 21.0686 21.1143 20.8868 21.1171C17.8646 21.0178 14.8775 20.6429 11.9413 19.9085C9.54138 19.308 7.2158 18.5035 5.06967 17.2471C4.36934 16.8372 3.70406 16.3683 3.00479 15.9154C2.99284 15.9722 2.98503 16.0299 2.98143 16.0879C2.97877 17.2477 2.96815 18.4068 2.98143 19.566C2.99204 20.6036 3.5007 21.4246 4.19041 22.143C5.31551 23.316 6.71457 24.0653 8.19169 24.6865C10.4217 25.6243 12.7579 26.176 15.1371 26.5541C15.7212 26.647 16.3052 26.7325 16.902 26.8233L15.8757 29.6047C11.2771 28.908 6.85581 27.6984 3.0016 24.8055C2.99204 24.934 2.98036 25.0237 2.97983 25.1135C2.97718 26.2111 2.96762 27.3086 2.97983 28.4057C2.98833 29.3084 3.38654 30.0614 3.95732 30.7294C4.84189 31.7643 5.96964 32.4743 7.17544 33.0658C9.26104 34.0912 11.4762 34.7066 13.7497 35.1506C14.209 35.2403 14.6704 35.3184 15.1302 35.4161C15.2019 35.4315 15.3033 35.5175 15.3134 35.5833C15.4525 36.4914 15.5789 37.4015 15.7063 38.3111C15.7049 38.3468 15.7005 38.3824 15.693 38.4173C11.1443 37.7116 6.79687 36.4951 3.00319 33.643C2.99629 33.7843 2.9878 33.8767 2.9878 33.9685C2.98461 34.9334 3.00054 35.8982 2.97665 36.8625C2.95222 37.8449 3.30159 38.678 3.91644 39.4156C4.7065 40.3629 5.70841 41.04 6.78838 41.6055C8.92123 42.7206 11.2038 43.4109 13.5575 43.8447C15.0856 44.1267 16.6371 44.2871 18.1737 44.5143C18.325 44.5366 18.5156 44.6099 18.5984 44.7241C19.3131 45.7197 20.1419 46.6134 21.0132 47.4721C21.0546 47.5124 21.0891 47.5586 21.1364 47.6133C20.778 47.6133 20.4461 47.6282 20.1154 47.6133C17.7096 47.488 15.324 47.1965 12.9714 46.6718C10.1737 46.0484 7.46375 45.1723 4.9741 43.7162C3.47309 42.839 2.10694 41.7982 1.1045 40.3449C0.405228 39.3259 0.0181617 38.2182 0.0192236 36.9661C0.027188 28.3638 0.0457714 19.7614 0.000109214 11.1591C-0.0105099 9.09669 0.753535 7.45587 2.17278 6.05348C3.53043 4.71004 5.14613 3.75263 6.87545 2.97683C10.1568 1.50487 13.6186 0.705709 17.176 0.317542C18.3531 0.186915 19.5393 0.130628 20.7196 0.0398256C20.7971 0.0334535 20.8741 0.0138062 20.9511 0H24.0837Z" fill="#2E2E2E"/>
<path d="M32.954 19.5127C41.1116 19.5403 47.5139 25.991 47.7146 33.8834C47.9201 42.0933 41.4403 48.8992 33.2094 48.9995C24.9323 49.101 18.2901 42.5451 18.2439 34.3358C18.1977 26.1869 24.7651 19.569 32.954 19.5127ZM30.3523 29.8737C30.4644 29.8806 30.5424 29.8902 30.6178 29.8902C34.3862 29.8902 38.1547 29.8911 41.9235 29.8928C42.1316 29.8928 42.2001 29.8397 42.1974 29.6273C42.1868 28.8223 42.1831 28.0168 42.1974 27.2123C42.2022 26.9686 42.1204 26.9224 41.8948 26.9229C38.9841 26.9293 36.0736 26.9302 33.1632 26.9256C32.3052 26.9256 31.447 26.9268 30.5886 26.9293C30.4792 26.9293 30.3476 26.8979 30.3481 27.0849C30.3513 28.0046 30.3502 28.9243 30.3502 29.8737H30.3523ZM30.3523 32.8272C30.3523 33.7235 30.363 34.5896 30.346 35.4551C30.3407 35.718 30.4272 35.7737 30.6741 35.7737C34.4074 35.7674 38.1404 35.7674 41.873 35.7737C41.975 35.7737 42.0769 35.7615 42.1788 35.7546V32.8272H30.3523ZM30.3635 41.7375C30.4697 41.7428 30.5493 41.7508 30.629 41.7508C34.3984 41.7508 38.1682 41.752 41.9383 41.7545C42.1624 41.7545 42.2011 41.6748 42.1985 41.4768C42.1884 40.7068 42.1948 39.9368 42.1932 39.1674C42.1932 38.7957 42.1932 38.7957 41.8215 38.7957H30.7776H30.3667L30.3635 41.7375ZM27.3652 26.951H24.4131C24.4131 27.8883 24.4131 28.7984 24.4131 29.7091C24.4131 29.8971 24.5288 29.8923 24.66 29.8918C25.4829 29.8918 26.3059 29.8918 27.1284 29.8886C27.2048 29.8886 27.2813 29.8758 27.3668 29.8679L27.3652 26.951ZM24.4242 32.8261V35.7467H27.3577V32.8261H24.4242ZM24.4317 38.8015V41.7274H27.3615V38.8015H24.4317Z" fill="#2E2E2E"/>
</svg>
