<svg xmlns="http://www.w3.org/2000/svg" width="271" height="96" viewBox="0 0 271 96" fill="none">
<path d="M252.4 1H18.6C11.4824 1 7.9236 1 5.37917 2.72919C4.33674 3.43763 3.43763 4.33674 2.72919 5.37917C1 7.9236 1 11.4824 1 18.6V31.1021C1 36.0669 1 38.5493 2.00578 40.6189C2.42273 41.4769 2.9603 42.2709 3.60215 42.9766C5.15044 44.6789 7.45538 45.6006 12.0652 47.444L126.945 93.3816L126.945 93.3817C129.732 94.4964 131.126 95.0538 132.579 95.186C133.186 95.2413 133.798 95.2408 134.405 95.1847C135.858 95.0505 137.251 94.4911 140.037 93.3725L258.958 45.6258C263.558 43.7786 265.859 42.855 267.404 41.1534C268.044 40.448 268.581 39.6546 268.997 38.7974C270 36.7297 270 34.2509 270 29.2931V18.6C270 11.4824 270 7.9236 268.271 5.37917C267.562 4.33674 266.663 3.43763 265.621 2.72919C263.076 1 259.518 1 252.4 1Z" fill="white" stroke="#8E8E8E"/>
</svg>