<svg width="51" height="51" viewBox="0 0 51 51" fill="none" xmlns="http://www.w3.org/2000/svg">
<path d="M13.3773 13.4901C13.1169 3.91674 20.4701 -0.131613 25.7583 0.00325557C31.6084 0.156412 37.945 4.90654 37.5955 13.4398C42.0956 13.3256 45.9515 14.7497 48.7087 18.4689C50.2785 20.5644 51.0845 23.1344 50.993 25.7518C50.8925 29.2629 49.5105 32.2643 46.8515 34.5891C44.2314 36.875 41.0791 37.6842 37.5384 37.5471C37.696 41.8903 36.4328 45.5478 33.0955 48.2909C30.9411 50.0953 28.2061 51.0569 25.3974 50.9974C21.8704 50.9562 18.8939 49.5801 16.5274 46.9628C14.1609 44.3454 13.3294 41.1657 13.4847 37.5677C9.08286 37.7048 5.36401 36.4247 2.61828 32.9615C0.835607 30.7855 -0.0927248 28.0335 0.00731969 25.2214C0.0357293 23.5569 0.416947 21.9174 1.12576 20.4113C1.83457 18.9052 2.85483 17.5668 4.11907 16.4847C6.73003 14.1759 9.87323 13.3621 13.3773 13.4901ZM13.4847 34.3559C13.4847 33.5239 13.4573 32.6575 13.4847 31.7934C13.6241 27.9828 17.0848 25.3929 20.6711 26.385C23.426 27.153 25.0913 29.6493 24.7829 32.5569C24.4973 35.3137 22.2245 37.3848 19.2754 37.5379C18.3823 37.5859 17.4845 37.5379 16.6188 37.5379C16.0865 41.424 17.818 45.0083 20.9864 46.8073C22.5276 47.6987 24.2984 48.1127 26.0748 47.9972C27.8512 47.8816 29.5535 47.2416 30.9665 46.1581C33.6665 44.0436 35.1056 40.3565 34.2696 37.5425C33.4632 37.5425 32.6295 37.5722 31.798 37.5425C28.0494 37.3871 25.4545 34.1136 26.2905 30.6025C26.9758 27.7039 29.4406 25.9735 32.5015 26.2295C35.2427 26.4581 37.3762 28.8263 37.5042 31.83C37.5407 32.6918 37.5042 33.5559 37.5042 34.3834C41.2596 34.9709 44.8596 33.2701 46.7008 30.1522C47.6331 28.5882 48.0709 26.7787 47.9568 24.9612C47.8426 23.1437 47.1818 21.4032 46.0612 19.9684C44.0053 17.3373 40.323 15.9178 37.5065 16.7384C37.5065 17.5362 37.5316 18.3683 37.5065 19.1981C37.3603 23.0407 33.9269 25.6672 30.3703 24.6843C27.5492 23.8979 25.8793 21.3857 26.2106 18.4277C26.5167 15.6846 28.8786 13.5999 31.7774 13.5039C32.6409 13.4741 33.5043 13.5039 34.3358 13.5039C34.6426 11.7668 34.425 9.97767 33.711 8.36491C32.9969 6.75215 31.8187 5.38895 30.3269 4.44936C28.8275 3.49391 27.0794 3.00306 25.3022 3.03844C23.525 3.07383 21.7978 3.63386 20.3376 4.64823C17.5119 6.60269 15.9723 10.2533 16.6553 13.3347C18.0922 13.4879 19.5701 13.4559 20.9338 13.8307C23.675 14.5897 25.2946 17.4722 24.7509 20.2839C24.1935 23.1687 21.6054 25.0591 18.5444 24.8168C15.7827 24.6042 13.6081 22.2246 13.4847 19.2598C13.4504 18.3957 13.4847 17.5293 13.4847 16.7018C10.2067 15.9749 6.51759 17.5682 4.54395 20.4622C2.57031 23.3561 2.52005 27.5142 4.41603 30.4059C6.43307 33.4393 10.0583 35.0577 13.4847 34.3559ZM34.4752 34.5022C34.4752 33.4119 34.5346 32.4609 34.4615 31.5306C34.3943 30.8607 34.0722 30.2423 33.5619 29.8036C33.0516 29.3648 32.3922 29.1393 31.7203 29.1738C31.0482 29.2039 30.4116 29.4844 29.9357 29.9603C29.4598 30.4361 29.1789 31.0729 29.1482 31.7454C29.1113 32.4169 29.3346 33.0768 29.7715 33.5877C30.2085 34.0986 30.8255 34.4213 31.4942 34.4885C32.4239 34.5663 33.3741 34.5022 34.4706 34.5022H34.4752ZM16.5137 16.5418C16.5137 17.6574 16.4452 18.5992 16.5297 19.5387C16.5985 20.2073 16.9213 20.824 17.4314 21.2613C17.9415 21.6986 18.6 21.9232 19.2709 21.8886C19.9365 21.8476 20.565 21.5674 21.0406 21.0995C21.5162 20.6316 21.8068 20.0074 21.859 19.3421C21.9053 18.6722 21.6927 18.0101 21.265 17.4928C20.8372 16.9754 20.2272 16.6423 19.561 16.5624C18.5947 16.4618 17.6102 16.5418 16.5137 16.5418ZM34.4752 16.5258C33.445 16.5258 32.5358 16.4755 31.6335 16.5258C30.9398 16.5614 30.2882 16.8695 29.8203 17.3831C29.3523 17.8967 29.1059 18.5745 29.1345 19.2689C29.1666 19.9405 29.4431 20.5771 29.9119 21.0588C30.3806 21.5405 31.0092 21.834 31.6792 21.884C32.3713 21.9255 33.0519 21.6922 33.5732 21.2347C34.0945 20.7772 34.4145 20.1325 34.4638 19.4404C34.5346 18.542 34.4752 17.6299 34.4752 16.5258ZM16.5251 34.4885C17.6673 34.4885 18.6701 34.5731 19.6409 34.468C20.9818 34.3217 21.9252 33.0553 21.8567 31.7249C21.8089 31.0551 21.5188 30.4257 21.0407 29.9544C20.5627 29.4832 19.9294 29.2024 19.2594 29.1646C17.9277 29.1189 16.6667 30.1133 16.5411 31.4346C16.4543 32.3992 16.5251 33.3776 16.5251 34.4885Z" fill="#2E2E2E"/>
</svg>
