<svg xmlns="http://www.w3.org/2000/svg" width="51" height="52" viewBox="0 0 51 52" fill="none">
<path d="M50.9669 25.3787C50.6529 24.0364 49.76 23.1023 48.9731 22.2762L48.926 22.2252C48.769 22.0623 48.614 21.8896 48.4609 21.7208C48.3078 21.5521 48.1116 21.3284 47.9272 21.1321C47.3973 20.5807 47.2403 19.9547 47.4326 19.1698L47.4424 19.1286C47.6642 18.2298 47.8918 17.2977 48.0312 16.3538C48.1315 15.7176 48.1348 15.0698 48.041 14.4326C47.8683 13.2552 47.1756 12.3349 46.0394 11.7775C45.483 11.5184 44.9116 11.293 44.3282 11.1025L43.9612 10.9749C43.6551 10.865 43.345 10.7669 43.0468 10.6727C42.7485 10.5785 42.4345 10.4765 42.1421 10.3764C41.9062 10.301 41.6915 10.1708 41.5155 9.99655C41.3395 9.82227 41.2072 9.60882 41.1295 9.37365C40.9961 8.98118 40.8685 8.57693 40.7371 8.18446C40.6056 7.79199 40.478 7.36616 40.3446 6.95406C40.2006 6.51445 40.0241 6.08613 39.8167 5.67264C39.1181 4.32842 37.9544 3.58861 36.5396 3.58861C36.334 3.58935 36.1288 3.60443 35.9253 3.63374C35.3465 3.7142 34.7833 3.84568 34.2377 3.97323C33.9434 4.04388 33.6392 4.11452 33.3429 4.16947C32.8582 4.26759 32.4108 4.34215 31.9692 4.39906C31.9224 4.40519 31.8752 4.40847 31.8279 4.40888C31.5862 4.40888 31.3538 4.31616 31.1784 4.14984C30.7859 3.80643 30.3934 3.44536 30.0245 3.09409C29.8283 2.91748 29.6497 2.74479 29.4633 2.57407L29.2945 2.41708C29.0865 2.22084 28.8726 2.02461 28.6489 1.82837C28.063 1.32781 27.3723 0.965032 26.6277 0.766731C26.5598 0.748812 26.4899 0.73958 26.4197 0.739258H25.57C25.5079 0.739547 25.446 0.746787 25.3855 0.760844C23.9765 1.10426 22.9953 2.04815 22.1299 2.88216L22.0083 2.99794C21.9003 3.10194 21.7885 3.20398 21.6786 3.30799C21.5138 3.46105 21.347 3.61412 21.1841 3.77699C21.0085 3.96505 20.7957 4.1145 20.5592 4.21585C20.3227 4.3172 20.0677 4.36824 19.8104 4.3657C19.5974 4.36337 19.3854 4.33637 19.1785 4.28525L18.8606 4.20675C18.0757 4.01052 17.2456 3.81428 16.4116 3.68476C16.0791 3.63407 15.7432 3.60849 15.4069 3.60823C15.0874 3.60741 14.7684 3.63301 14.4532 3.68476C13.1031 3.91044 12.0826 4.81312 11.5096 6.29274C11.2859 6.86183 11.1054 7.44269 10.9327 8.00392C10.8522 8.26492 10.7679 8.53376 10.6815 8.78887C10.5952 9.04397 10.5029 9.30693 10.4127 9.56008L10.3931 9.61502C10.3198 9.84984 10.1915 10.0637 10.0187 10.2389C9.846 10.414 9.63389 10.5452 9.4001 10.6217C9.00763 10.7552 8.60534 10.8827 8.21287 11.0142C7.8204 11.1457 7.4711 11.2477 7.10217 11.3713C6.66959 11.5095 6.24562 11.6733 5.83252 11.8619C4.12134 12.6665 3.32462 14.1854 3.64645 16.0261C3.76027 16.6815 3.91333 17.3271 4.06247 17.9531C4.13901 18.2769 4.2175 18.6085 4.28814 18.9343C4.32739 19.1109 4.35486 19.3091 4.38038 19.5034L4.39607 19.6113C4.42485 19.7925 4.4115 19.978 4.35705 20.1533C4.3026 20.3285 4.20852 20.4889 4.0821 20.6219C3.74261 21.0144 3.3835 21.3892 3.03616 21.7601C2.8203 21.9916 2.60248 22.2232 2.38858 22.4567C1.84304 23.0454 1.23471 23.7617 0.924656 24.7076C0.893258 24.8017 0.865785 24.9038 0.83635 24.9921L0.797102 25.1177C0.769468 25.1946 0.754233 25.2754 0.751968 25.3571V26.6562C0.751596 26.7137 0.758185 26.771 0.771592 26.8269C1.06595 28.1515 1.89406 29.0797 2.71826 29.9176C2.84385 30.0452 2.9714 30.1825 3.09503 30.3101C3.29126 30.5063 3.47376 30.7183 3.68374 30.9184C4.33328 31.5444 4.50989 32.2254 4.26067 33.128C4.0193 33.9935 3.83288 34.8745 3.64645 35.7792C3.50531 36.4476 3.52211 37.1397 3.69551 37.8004C3.98594 38.919 4.74734 39.7628 5.89924 40.2259C6.41731 40.4359 6.94714 40.6086 7.46913 40.7734C7.73601 40.8598 8.01075 40.95 8.27763 41.0423C8.63478 41.1678 9.10574 41.3346 9.56886 41.523C9.73654 41.5844 9.88849 41.6822 10.0137 41.8095C10.139 41.9368 10.2343 42.0903 10.293 42.2589C10.501 42.8476 10.6854 43.4599 10.8817 44.0525C10.9523 44.2782 11.0249 44.5019 11.0956 44.7256C11.3057 45.4569 11.6238 46.1527 12.0395 46.79C12.3773 47.2864 12.8298 47.6941 13.3585 47.9787C13.8873 48.2632 14.4768 48.4162 15.0772 48.4247H15.2734C16.0803 48.3986 16.8812 48.2774 17.6597 48.0636L18.009 47.9812C18.5977 47.8497 19.1864 47.7437 19.7319 47.6476C19.8057 47.6338 19.8806 47.6265 19.9556 47.626C20.2264 47.6269 20.4881 47.7243 20.6935 47.9007C21.086 48.2147 21.4608 48.5581 21.8317 48.8819L21.8434 48.8917L22.181 49.2096C22.2987 49.3156 22.4204 49.4294 22.5381 49.5393C22.6559 49.6492 22.7971 49.7826 22.9306 49.9043C23.6225 50.5553 24.4697 51.018 25.3914 51.2485C25.4493 51.2618 25.5086 51.2684 25.568 51.2681H26.3176C26.375 51.2681 26.4322 51.2622 26.4883 51.2505C27.8757 50.9424 28.853 50.0397 29.7164 49.241L29.9539 49.0232C30.1599 48.8269 30.3463 48.6307 30.5426 48.4482L30.7604 48.2323C30.9229 48.0531 31.1209 47.9095 31.3418 47.8109C31.5628 47.7122 31.8018 47.6606 32.0438 47.6593C32.2265 47.6608 32.4084 47.6845 32.5854 47.73C33.4449 47.938 34.4163 48.1735 35.3837 48.3736C35.729 48.4464 36.0808 48.4838 36.4336 48.4855C36.9011 48.4884 37.3657 48.4114 37.8073 48.2579C38.8238 47.8987 39.5518 47.1413 40.0326 45.9423C40.2288 45.4674 40.374 44.9827 40.5212 44.5156C40.5977 44.2703 40.6762 44.0172 40.7586 43.7758C40.8999 43.3559 41.0608 42.8829 41.2414 42.4375C41.3022 42.2705 41.3997 42.1192 41.5267 41.9949C41.6537 41.8706 41.807 41.7764 41.9753 41.7193C42.3678 41.5839 42.7603 41.4583 43.1527 41.3268C43.61 41.1835 44.0809 41.0364 44.544 40.8676C45.1691 40.6606 45.7719 40.3917 46.3435 40.065C47.7172 39.229 48.351 37.8142 48.1097 36.0794C48.0194 35.424 47.8742 34.7823 47.7329 34.1602C47.6603 33.8384 47.5837 33.5048 47.519 33.1791C47.4542 32.8533 47.4012 32.504 47.362 32.141C47.3149 31.7073 47.5759 31.3344 47.8644 30.9969C48.2706 30.522 48.7042 30.0569 49.1144 29.6233C49.8993 28.801 50.6843 27.8925 50.9786 26.6248C50.9928 26.565 51 26.5037 51.0002 26.4423V25.5435C50.995 25.4875 50.9838 25.4323 50.9669 25.3787ZM4.26263 27.2861C4.18806 27.2037 4.11546 27.1134 4.03108 27.0074C3.97417 26.9348 3.91726 26.8622 3.85839 26.7916C3.50516 26.3716 3.50909 25.5062 3.85839 25.1059C4.14685 24.7821 4.4471 24.4603 4.7493 24.1463C5.0515 23.8323 5.32231 23.5419 5.60685 23.2279C5.97707 22.8284 6.31809 22.4028 6.62728 21.9544C7.26897 20.9928 7.42792 19.8919 7.12768 18.4908C7.03349 18.0512 6.93145 17.6116 6.83333 17.1858C6.73521 16.76 6.62728 16.3047 6.53309 15.8651C6.49425 15.633 6.47456 15.398 6.47422 15.1626C6.46569 15.0454 6.49354 14.9285 6.55394 14.8277C6.61435 14.7269 6.70437 14.6472 6.81174 14.5994C7.30646 14.3304 7.83423 14.1272 8.38163 13.995C8.53273 13.9518 8.67991 13.9087 8.82709 13.8616C9.31572 13.7105 9.89461 13.526 10.4774 13.3062C11.0976 13.0835 11.6582 12.7208 12.1156 12.2464C12.5729 11.772 12.9149 11.1986 13.1148 10.5707C13.266 10.1292 13.4053 9.67978 13.5387 9.2461C13.6722 8.81242 13.8193 8.33556 13.9724 7.89011C14.0985 7.53576 14.2616 7.1957 14.4591 6.87556C14.5122 6.76935 14.5932 6.67962 14.6935 6.616C14.7937 6.55238 14.9094 6.51729 15.0282 6.51449H15.1008C15.6483 6.56551 16.2173 6.66952 16.7668 6.7696L17.2495 6.8579C17.4909 6.89911 17.7421 6.95013 17.9835 7.00116C18.4015 7.08554 18.8312 7.17384 19.2708 7.23075C19.4724 7.25802 19.6756 7.27178 19.8791 7.27196C20.9727 7.26842 22.0275 6.86659 22.8462 6.14164C23.1425 5.89046 23.4192 5.6275 23.6861 5.3724C23.8823 5.17616 24.0786 4.97992 24.2885 4.8092C24.7124 4.43439 25.097 4.09882 25.4954 3.81035C25.6096 3.71505 25.7512 3.65868 25.8996 3.64944C26.0462 3.6581 26.185 3.71781 26.2921 3.8182C26.714 4.16554 27.132 4.55213 27.5382 4.92694C27.7011 5.07804 27.862 5.22718 28.0249 5.37436L28.4507 5.76683L28.749 6.04745C29.6008 6.87769 30.7424 7.34363 31.9319 7.34653C32.3353 7.34892 32.7377 7.3048 33.1309 7.21505L33.441 7.14245C34.2044 6.96583 34.9913 6.78137 35.7644 6.62242C35.9929 6.58084 36.225 6.56243 36.4571 6.56747H36.5199C36.8437 6.56747 36.9124 6.70876 36.934 6.76371C37.1832 7.30532 37.3971 7.88814 37.6051 8.4533L37.6699 8.62795C37.7719 8.90072 37.8661 9.18723 37.9623 9.46392C38.1153 9.91723 38.2704 10.3803 38.4588 10.8376C38.6543 11.3198 38.9468 11.7567 39.3181 12.1212C39.6894 12.4858 40.1316 12.7702 40.6174 12.9569C41.1688 13.1787 41.7281 13.3651 42.2716 13.5456C42.5738 13.6477 42.8858 13.7419 43.1861 13.8576L43.3705 13.9224C43.763 14.0617 44.1673 14.203 44.5283 14.3738C44.9856 14.5916 45.1583 14.8643 45.1171 15.3176C45.1101 15.4011 45.116 15.4852 45.1347 15.5669L45.0719 15.8632L45.0464 15.977C44.9188 16.5657 44.7874 17.1544 44.6637 17.7647C44.5499 18.3142 44.442 18.8538 44.3615 19.4052C44.2753 19.9408 44.3022 20.4885 44.4404 21.013C44.5786 21.5375 44.8252 22.0273 45.1641 22.4508C45.5566 22.9395 45.9746 23.4026 46.3788 23.85C46.6006 24.0953 46.8302 24.3465 47.0461 24.5957C47.3154 24.8962 47.5689 25.2106 47.8055 25.5376C48.1097 25.9772 47.9801 26.2657 47.831 26.4698C47.5425 26.8622 47.1952 27.2547 46.8596 27.6334L46.5908 27.9356C46.3945 28.1593 46.1807 28.387 45.9726 28.6048L45.9609 28.6185C45.8412 28.7461 45.7195 28.8736 45.6018 29.0012C44.4989 30.1943 44.1143 31.6268 44.4538 33.2576C44.5342 33.6324 44.6147 34.0091 44.6971 34.384C44.8148 34.9295 44.9385 35.4947 45.0503 36.0539C45.0909 36.299 45.1086 36.5473 45.1033 36.7957C45.1146 36.9609 45.0764 37.1256 44.9936 37.269C44.9107 37.4123 44.787 37.5276 44.6382 37.6003C44.1223 37.8734 43.5746 38.0816 43.0075 38.2204L42.7642 38.291L41.94 38.5442H41.9164L41.3768 38.711C39.7382 39.2074 38.6295 40.3319 38.1036 42.047C38.0368 42.257 37.9741 42.4669 37.9073 42.6789C37.7111 43.3441 37.4992 44.0231 37.2617 44.6687C36.9772 45.4536 36.7535 45.4536 36.4944 45.4536C36.3182 45.4493 36.1428 45.4283 35.9705 45.3908C35.2699 45.2515 34.5556 45.0808 33.8629 44.914L33.2016 44.757C32.8089 44.6624 32.4065 44.6137 32.0026 44.6118C30.7926 44.6181 29.6338 45.1002 28.7765 45.954C28.3212 46.3818 27.8699 46.8116 27.4165 47.2433L26.769 47.8575H26.7592L26.7474 47.8693C26.3922 48.1617 26.1273 48.305 25.933 48.305C25.7387 48.305 25.4797 48.1696 25.1343 47.8909C24.8851 47.6947 24.6378 47.4592 24.3965 47.2355C24.265 47.1118 24.1335 46.9882 24.004 46.8685L23.7822 46.6723C23.482 46.4015 23.172 46.1208 22.856 45.8481C22.0092 45.1002 20.9167 44.6902 19.7869 44.6962C19.4284 44.698 19.0709 44.7341 18.7194 44.8041L18.1738 44.914C17.4281 45.0631 16.6569 45.2182 15.8994 45.3457C15.69 45.38 15.4779 45.3958 15.2656 45.3928C15.1596 45.3928 15.0497 45.3928 14.9281 45.3928C14.8044 45.3927 14.6836 45.3552 14.5817 45.2851C14.4797 45.2151 14.4014 45.1158 14.357 45.0003C14.1314 44.4862 13.939 43.9289 13.7526 43.3892V43.3735L13.5819 42.8849C13.5014 42.6573 13.4249 42.4198 13.3523 42.1883C13.2797 41.9567 13.213 41.7566 13.1384 41.5407C12.9042 40.8063 12.4932 40.1406 11.9417 39.6021C11.3902 39.0635 10.7149 38.6686 9.97507 38.4519C9.54727 38.3106 9.11556 38.1752 8.69757 38.0457C8.24427 37.9025 7.77526 37.7553 7.32392 37.6042C7.14727 37.537 6.97604 37.4563 6.81174 37.3628H6.79408C6.65933 37.3095 6.54898 37.2083 6.48416 37.0787C6.41935 36.9491 6.40463 36.8001 6.44282 36.6603C6.50758 36.2148 6.60766 35.7517 6.70577 35.3063L6.8294 34.7176C6.87061 34.5213 6.91378 34.3251 6.95696 34.119C7.04526 33.7089 7.13749 33.287 7.2101 32.8572C7.31993 32.2351 7.28387 31.5961 7.10476 30.9903C6.92564 30.3845 6.60836 29.8285 6.1779 29.3662C5.77169 28.8992 5.3439 28.4459 4.9318 28.0063L4.49616 28.3988L4.92591 28.0161C4.7022 27.7669 4.48046 27.5275 4.25478 27.2861H4.26263Z" fill="#2E2E2E"/>
<path d="M25.6736 41.4052H25.8031C29.8158 41.3725 33.6537 39.7584 36.4836 36.9134C39.3135 34.0683 40.9071 30.222 40.9185 26.2092C40.9299 22.1964 39.3581 18.341 36.5443 15.48C33.7306 12.619 29.9019 10.9832 25.8895 10.9277H25.8326C21.813 10.9348 17.9584 12.5272 15.1058 15.3592C12.2532 18.1912 10.633 22.0342 10.5968 26.0536C10.5634 34.4466 17.3336 41.3365 25.6736 41.4052ZM25.8267 13.887H25.8699C29.1202 13.8968 32.2343 15.1943 34.5301 17.4952C36.8259 19.7962 38.1164 22.9131 38.1189 26.1635C38.1189 32.9239 32.64 38.4224 25.9287 38.4244H25.9052C24.2792 38.4346 22.6674 38.1213 21.1635 37.5029C19.6597 36.8845 18.2938 35.9732 17.1454 34.822C15.997 33.6708 15.0889 32.3028 14.4741 30.7975C13.8592 29.2922 13.5498 27.6796 13.5639 26.0536C13.5816 19.3463 19.0821 13.887 25.8267 13.887Z" fill="#2E2E2E"/>
<path d="M19.8595 29.0208L20.042 29.2014L21.2665 30.4161L23.3917 32.5295C23.5268 32.6856 23.7178 32.7821 23.9235 32.7984C23.9788 32.7976 24.0336 32.789 24.0864 32.7729C24.256 32.7119 24.4091 32.6125 24.5338 32.4824C26.0664 30.9498 27.6226 29.3878 29.1258 27.8768L30.1266 26.872L30.8311 26.1636L32.5265 24.4623C32.8789 24.1374 33.0961 23.6919 33.1349 23.2142C33.1629 22.8044 33.0652 22.3958 32.8548 22.043C32.6444 21.6903 32.3314 21.4101 31.9575 21.2401C31.7107 21.1285 31.4433 21.0704 31.1725 21.0693C30.9044 21.071 30.6394 21.126 30.3928 21.2311C30.1462 21.3363 29.9229 21.4894 29.7361 21.6816L27.8129 23.6224C26.9573 24.4871 26.1011 25.3519 25.2442 26.2166C24.9322 26.5306 24.6182 26.8348 24.2866 27.1585C24.1708 27.2724 24.0531 27.3862 23.9353 27.5039C23.9233 27.4886 23.9102 27.4742 23.8961 27.4607L23.6213 27.1841C23.0326 26.5953 22.4282 25.9851 21.8277 25.3905C21.484 25.0493 21.0285 24.844 20.5453 24.8123C20.062 24.7805 19.5836 24.9245 19.1982 25.2178C18.981 25.3829 18.8018 25.5927 18.6728 25.8331C18.5438 26.0735 18.468 26.3388 18.4505 26.611C18.4308 26.9037 18.4731 27.1973 18.5745 27.4725C18.6759 27.7478 18.8343 27.9985 19.0392 28.2084C19.312 28.4792 19.5906 28.7539 19.8595 29.0208Z" fill="#2E2E2E"/>
</svg>