<svg xmlns="http://www.w3.org/2000/svg" width="40" height="42" viewBox="0 0 40 42" fill="none">
  <!-- SVG trên -->
  <path d="M8.42493 9.85065C9.10405 10.2755 9.75021 10.678 10.395 11.0845C11.325 11.6696 11.2893 12.7364 10.3211 13.2593C7.50107 14.7827 4.67299 16.2858 1.86307 17.8342C0.92576 18.3517 -0.0391206 17.6827 0.00122283 16.6883C0.135701 13.4785 0.225129 10.2667 0.298419 7.05487C0.32666 5.82845 1.48586 5.43137 2.27726 6.00433C3.00277 6.52655 3.79014 6.96219 4.52708 7.42489C5.20553 6.72949 5.83623 6.02598 6.52677 5.3874C9.52698 2.61394 13.049 0.895064 17.0725 0.263254C21.9689 -0.505199 26.5607 0.405986 30.7644 3.03266C35.6668 6.09159 38.6933 10.5231 39.9372 16.1836C40.2283 17.5095 39.482 18.6811 38.2219 18.9497C36.9827 19.2114 35.884 18.4301 35.5707 17.1212C34.0242 10.6881 30.1062 6.46229 23.7023 4.93824C17.8525 3.54812 12.7793 5.29608 8.59841 9.64095C8.54462 9.69981 8.49822 9.76272 8.42493 9.85065Z" fill="#2E2E2E"/>
  
  <!-- SVG dưới (dịch xuống 23px để cách SVG trên 4px) -->
  <g transform="translate(0,22)">
    <path d="M31.669 9.14124C30.9446 8.68815 30.2432 8.24724 29.5397 7.80973C29.1698 7.58014 28.9528 7.26182 28.9414 6.8155C28.9299 6.34548 29.1145 5.9723 29.5263 5.74948C32.4385 4.1728 35.3541 2.60244 38.2731 1.03841C39.106 0.593442 40.0251 1.17386 39.9995 2.13152C39.9096 5.40227 39.8072 8.67279 39.6922 11.9431C39.6525 13.0586 38.7172 13.5286 37.7718 12.9427L35.5947 11.5929C35.5779 11.5854 35.5599 11.5808 35.5415 11.5794C34.9728 12.1774 34.431 12.7985 33.8394 13.3613C30.7836 16.2796 27.1719 18.1049 23.0084 18.751C15.3564 19.9369 7.9774 16.835 3.45335 10.5561C1.73909 8.19773 0.572209 5.48338 0.0384199 2.61238C-0.188658 1.39939 0.614538 0.274451 1.82203 0.0435032C2.39585 -0.0724092 2.99198 0.0454782 3.47935 0.371245C3.96671 0.697011 4.30541 1.20399 4.42096 1.78069C4.96002 4.41527 6.06037 6.78502 7.79008 8.84053C10.3998 11.9397 13.7056 13.8394 17.7148 14.3521C23.0643 15.0369 27.62 13.3457 31.3779 9.46836C31.4709 9.37286 31.5558 9.26992 31.669 9.14124Z" fill="#2E2E2E"/>
  </g>
</svg>
